<svg width="291" height="291" viewBox="0 0 291 291" fill="none" xmlns="http://www.w3.org/2000/svg">
<mask id="path-1-inside-1_6992_10081" fill="white">
<path d="M4.49493 179.813C-14.556 102.038 33.0489 23.5457 110.823 4.49477C188.598 -14.5562 267.091 33.0487 286.141 110.823C305.192 188.598 257.588 267.09 179.813 286.141C102.038 305.192 23.5459 257.587 4.49493 179.813ZM233.411 123.74C221.494 75.0872 172.392 45.3076 123.74 57.2251C75.0873 69.1425 45.3078 118.244 57.2252 166.896C69.1427 215.549 118.244 245.328 166.897 233.411C215.549 221.494 245.329 172.392 233.411 123.74Z"/>
</mask>
<path d="M4.49493 179.813C-14.556 102.038 33.0489 23.5457 110.823 4.49477C188.598 -14.5562 267.091 33.0487 286.141 110.823C305.192 188.598 257.588 267.09 179.813 286.141C102.038 305.192 23.5459 257.587 4.49493 179.813ZM233.411 123.74C221.494 75.0872 172.392 45.3076 123.74 57.2251C75.0873 69.1425 45.3078 118.244 57.2252 166.896C69.1427 215.549 118.244 245.328 166.897 233.411C215.549 221.494 245.329 172.392 233.411 123.74Z" stroke="url(#paint0_radial_6992_10081)" stroke-width="214" mask="url(#path-1-inside-1_6992_10081)"/>
<defs>
<radialGradient id="paint0_radial_6992_10081" cx="0" cy="0" r="1" gradientUnits="userSpaceOnUse" gradientTransform="translate(282.116 124.585) rotate(-159.291) scale(212.31)">
<stop stop-color="#FF2C7E"/>
<stop offset="1" stop-color="#83A1FE"/>
</radialGradient>
</defs>
</svg>
