<svg width="171" height="36" viewBox="0 0 171 36" fill="none" xmlns="http://www.w3.org/2000/svg">
<g clip-path="url(#clip0_6992_10088)">
<path d="M37.123 0.908798V34.7115C35.6591 33.7319 34.4553 32.5186 33.5117 31.0669C32.3389 29.2667 31.6995 27.1973 31.5981 24.8544V6.44624L20.6672 20.5656H14.4853L0.000488281 0.882324L4.2379 0.908798H7.61989L17.5983 15.0282L28.2646 0.908798H37.123Z" fill="#464141"/>
<path d="M59.3284 25.3618C58.3011 27.2723 56.7049 28.6754 54.5355 29.5711C52.3616 30.4668 49.8571 30.9169 47.0175 30.9169C44.5967 30.9169 42.4802 30.5727 40.668 29.8888V35.1968C42.6169 35.6469 44.7334 35.8719 47.0175 35.8719C49.3015 35.8719 51.2593 35.6513 53.2347 35.2145C55.2057 34.7777 56.9959 34.1202 58.5921 33.2422C60.1927 32.3685 61.5596 31.2699 62.706 29.9594C63.8525 28.6446 64.7167 27.1311 65.312 25.4192L59.3329 25.3618H59.3284ZM65.0695 12.2837C64.3948 9.89666 63.2837 7.85818 61.7271 6.16385C60.1706 4.47394 58.1776 3.1679 55.748 2.25455C53.3229 1.3412 50.4876 0.882324 47.2556 0.882324C44.9054 0.882324 42.7139 1.14265 40.6724 1.65889V6.98013C42.6169 6.2168 44.8481 5.83734 47.3746 5.83734C49.0678 5.83734 50.6861 6.05796 52.2293 6.49478C53.7682 6.9316 55.1087 7.56255 56.2551 8.37442C57.4015 9.1907 58.3143 10.1923 59.0066 11.388C59.6988 12.5793 60.0648 13.9339 60.1001 15.4473H40.6724V20.2215H65.6074C65.9205 17.3182 65.7441 14.6708 65.0739 12.2837H65.0695Z" fill="#464141"/>
<path d="M17.5983 15.0282L13.9606 19.8508L0.000488281 0.882324L7.61989 0.908798L17.5983 15.0282Z" fill="#1E1926"/>
<path d="M78.818 24.987H80.9036V17.4199H77.5834L75.2155 22.9927L72.8256 17.4199H69.501V24.987H71.5734V19.2201L74.1661 24.987H76.2385L78.818 19.229V24.987Z" fill="#333333"/>
<path d="M84.4397 24.6912C85.1497 25.0222 85.9742 25.1898 86.9134 25.1898C87.8526 25.1898 88.6772 25.0222 89.3871 24.6912C90.097 24.3603 90.6481 23.8926 91.0406 23.2925C91.433 22.6925 91.6314 21.9997 91.6314 21.2099C91.6314 20.4201 91.433 19.7142 91.0406 19.1141C90.6481 18.514 90.097 18.0507 89.3871 17.7154C88.6772 17.3845 87.8526 17.2168 86.9134 17.2168C85.9742 17.2168 85.1497 17.3845 84.4397 17.7154C83.7298 18.0463 83.1787 18.514 82.7774 19.1141C82.3762 19.7142 82.1777 20.4113 82.1777 21.2099C82.1777 22.0086 82.3762 22.6925 82.7774 23.2925C83.1743 23.8926 83.7298 24.3559 84.4397 24.6912ZM84.7396 19.9833C84.938 19.6436 85.2246 19.3788 85.595 19.1935C85.9654 19.0082 86.4063 18.9155 86.909 18.9155C87.4117 18.9155 87.8658 19.0082 88.2318 19.1935C88.5978 19.3788 88.8844 19.6436 89.0828 19.9833C89.2812 20.3231 89.3827 20.7334 89.3827 21.2143C89.3827 21.6953 89.2812 22.0924 89.0828 22.4321C88.8844 22.7719 88.6022 23.0366 88.2318 23.2219C87.8614 23.4073 87.4249 23.4999 86.909 23.4999C86.3931 23.4999 85.9654 23.4073 85.595 23.2219C85.2246 23.0366 84.938 22.7719 84.7396 22.4321C84.5412 22.0924 84.4397 21.6865 84.4397 21.2143C84.4397 20.7422 84.5412 20.3275 84.7396 19.9833Z" fill="#333333"/>
<path d="M95.8648 19.1846C96.2131 19.0037 96.6232 18.9111 97.095 18.9111C97.6814 18.9111 98.1797 19.0523 98.5898 19.3303C98.9998 19.6082 99.2644 20.0053 99.379 20.5216H101.597C101.509 19.8641 101.257 19.2905 100.847 18.8008C100.437 18.311 99.9038 17.9227 99.26 17.6448C98.6118 17.3668 97.8931 17.2256 97.095 17.2256C96.1911 17.2256 95.3974 17.3933 94.7095 17.733C94.0216 18.0683 93.4881 18.536 93.1001 19.1361C92.7121 19.7362 92.5225 20.4289 92.5225 21.2187C92.5225 22.0085 92.7165 22.6924 93.1001 23.2925C93.4837 23.897 94.0216 24.3647 94.7095 24.6956C95.3974 25.0265 96.1911 25.1942 97.095 25.1942C97.8931 25.1942 98.6162 25.0574 99.26 24.7839C99.9082 24.5103 100.437 24.122 100.847 23.6278C101.257 23.1337 101.509 22.5601 101.597 21.9115H99.379C99.2732 22.388 99.0131 22.7763 98.603 23.0675C98.1929 23.3587 97.6858 23.5087 97.095 23.5087C96.6232 23.5087 96.2131 23.4161 95.8648 23.2351C95.5164 23.0542 95.2475 22.7939 95.0623 22.4498C94.8771 22.11 94.7845 21.6997 94.7845 21.2187C94.7845 20.7378 94.8771 20.3186 95.0623 19.9745C95.2475 19.6347 95.5164 19.37 95.8648 19.1891V19.1846Z" fill="#333333"/>
<path d="M107.237 22.1367L108.974 24.987H111.514L108.652 20.4909L111.284 17.4199H108.868L105.014 22.1632V17.4199H102.792V24.987H104.785L107.237 22.1367Z" fill="#333333"/>
<path d="M118.648 17.7198C117.938 17.3889 117.113 17.2212 116.174 17.2212C115.235 17.2212 114.41 17.3889 113.7 17.7198C112.991 18.0507 112.439 18.5184 112.038 19.1185C111.637 19.7186 111.438 20.4157 111.438 21.2143C111.438 22.013 111.637 22.6969 112.038 23.2969C112.435 23.897 112.991 24.3603 113.7 24.6956C114.41 25.0266 115.235 25.1942 116.174 25.1942C117.113 25.1942 117.938 25.0266 118.648 24.6956C119.358 24.3647 119.909 23.897 120.301 23.2969C120.694 22.6969 120.892 22.0041 120.892 21.2143C120.892 20.4245 120.694 19.7186 120.301 19.1185C119.909 18.5184 119.358 18.0551 118.648 17.7198ZM118.348 22.4277C118.15 22.7675 117.867 23.0322 117.497 23.2175C117.127 23.4028 116.69 23.4955 116.174 23.4955C115.658 23.4955 115.231 23.4028 114.86 23.2175C114.49 23.0322 114.203 22.7675 114.005 22.4277C113.806 22.088 113.705 21.682 113.705 21.2099C113.705 20.7378 113.806 20.323 114.005 19.9789C114.203 19.6391 114.49 19.3744 114.86 19.1891C115.231 19.0038 115.671 18.9111 116.174 18.9111C116.677 18.9111 117.131 19.0038 117.497 19.1891C117.863 19.3744 118.15 19.6391 118.348 19.9789C118.546 20.3186 118.648 20.729 118.648 21.2099C118.648 21.6909 118.546 22.088 118.348 22.4277Z" fill="#333333"/>
<path d="M127.965 24.987C128.79 24.987 129.438 24.7973 129.914 24.4223C130.386 24.0472 130.624 23.531 130.624 22.8735C130.624 22.2602 130.39 21.7837 129.927 21.4439C129.654 21.2454 129.301 21.1042 128.882 21.0115C129.125 20.9189 129.341 20.8042 129.522 20.6586C129.945 20.3188 130.161 19.8732 130.161 19.3216C130.161 18.7348 129.949 18.2715 129.522 17.9317C129.098 17.592 128.521 17.4199 127.793 17.4199H121.973L122.396 21.2101L121.973 24.987H127.965ZM128.124 23.3192C127.947 23.4736 127.665 23.553 127.286 23.553H124.226L124.446 21.7837H127.136C127.577 21.7837 127.899 21.8675 128.093 22.0308C128.287 22.194 128.384 22.4058 128.384 22.6617C128.384 22.9441 128.296 23.1647 128.119 23.3192H128.124ZM127.692 19.0966C127.846 19.2466 127.925 19.4408 127.925 19.6834C127.925 19.9393 127.837 20.1423 127.665 20.2967C127.493 20.4468 127.22 20.5218 126.849 20.5218H124.437L124.23 18.8716H126.942C127.286 18.8716 127.537 18.9466 127.692 19.0966Z" fill="#333333"/>
<path d="M139.799 23.619C140.21 23.1249 140.461 22.5513 140.549 21.9026H138.331C138.225 22.3792 137.965 22.7675 137.555 23.0587C137.145 23.3499 136.638 23.4999 136.047 23.4999C135.575 23.4999 135.165 23.4072 134.817 23.2263C134.469 23.0454 134.2 22.7851 134.014 22.4409C133.829 22.1012 133.737 21.6909 133.737 21.2099C133.737 20.729 133.829 20.3098 134.014 19.9656C134.2 19.6259 134.469 19.3612 134.817 19.1803C135.165 18.9994 135.575 18.9067 136.047 18.9067C136.634 18.9067 137.132 19.0479 137.542 19.3259C137.952 19.6038 138.217 20.0009 138.331 20.5172H140.549C140.461 19.8598 140.21 19.2862 139.799 18.7964C139.389 18.3066 138.856 17.9183 138.212 17.6404C137.564 17.3624 136.845 17.2212 136.047 17.2212C135.143 17.2212 134.35 17.3889 133.662 17.7286C132.974 18.0639 132.44 18.5316 132.052 19.1317C131.664 19.7318 131.475 20.4245 131.475 21.2143C131.475 22.0041 131.669 22.688 132.052 23.2881C132.436 23.8926 132.974 24.3603 133.662 24.6912C134.35 25.0221 135.143 25.1898 136.047 25.1898C136.845 25.1898 137.568 25.053 138.212 24.7795C138.86 24.5059 139.389 24.1176 139.799 23.6234V23.619Z" fill="#333333"/>
<path d="M146.189 22.1367L147.926 24.987H150.466L147.604 20.4909L150.241 17.4199H147.82L143.966 22.1632V17.4199H141.749V24.987H143.742L146.189 22.1367Z" fill="#333333"/>
<path d="M160.272 24.987V17.4199H157.415L153.402 22.9265V17.4199H151.224V24.987H154.002L158.094 19.379V24.987H160.272Z" fill="#333333"/>
<path d="M164.338 16.0963C164.862 16.5199 165.55 16.7272 166.41 16.7272C167.27 16.7272 167.949 16.5154 168.478 16.0963C169.007 15.6771 169.325 15.0594 169.444 14.2563H167.715C167.645 14.6358 167.499 14.927 167.279 15.1256C167.058 15.3241 166.767 15.4256 166.415 15.4256C166.062 15.4256 165.771 15.3241 165.546 15.1256C165.321 14.927 165.175 14.6358 165.114 14.2563H163.372C163.496 15.0638 163.817 15.6771 164.342 16.0963H164.338Z" fill="#333333"/>
<path d="M168.139 17.4199L164.126 22.9265V17.4199H161.948V24.987H164.726L168.818 19.379V24.987H171V17.4199H168.139Z" fill="#333333"/>
<path d="M74.1615 29.5053C73.7161 29.2758 73.2002 29.1655 72.6182 29.1655C72.1199 29.1655 71.6658 29.2538 71.2601 29.4214C70.8544 29.5935 70.5149 29.8274 70.2459 30.1274C69.977 30.4274 69.8006 30.7716 69.7124 31.1643H70.5899C70.7001 30.776 70.9382 30.4583 71.3042 30.2157C71.6702 29.9686 72.1067 29.845 72.6182 29.845C73.0415 29.845 73.4163 29.9289 73.7338 30.0921C74.0512 30.2598 74.2982 30.4936 74.4701 30.7981C74.598 31.0187 74.6729 31.2702 74.7082 31.5482H71.7495V32.2012H74.7082C74.6729 32.4748 74.5936 32.7263 74.4701 32.9425C74.2982 33.2469 74.0512 33.4808 73.7338 33.6484C73.4163 33.8161 73.0459 33.8955 72.6182 33.8955C72.0979 33.8955 71.6613 33.772 71.2998 33.5293C70.9382 33.2866 70.7045 32.9689 70.5899 32.5762H69.7124C69.8006 32.9645 69.977 33.3087 70.2459 33.6131C70.5149 33.9176 70.8544 34.1558 71.2601 34.3279C71.6658 34.5 72.1199 34.5838 72.6182 34.5838C73.2046 34.5838 73.7205 34.4691 74.1615 34.2397C74.6068 34.0102 74.9507 33.6881 75.2021 33.2822C75.4534 32.8719 75.5769 32.3997 75.5769 31.8659C75.5769 31.332 75.4534 30.8599 75.2021 30.4495C74.9507 30.0392 74.6068 29.7215 74.1615 29.4965V29.5053Z" fill="#333333"/>
<path d="M81.8427 29.2847H80.8506L77.5038 33.3087V29.2847H76.6528V34.478H77.4377L79.4351 32.1218L81.0005 34.478H82.019L79.9863 31.4732L81.8427 29.2847Z" fill="#333333"/>
<path d="M84.0209 30.1142C84.3339 29.9465 84.6955 29.8671 85.1188 29.8671C85.6391 29.8671 86.0801 29.9906 86.446 30.2421C86.812 30.4936 87.0413 30.829 87.1339 31.2614H88.0114C87.9408 30.8422 87.7733 30.476 87.5087 30.1627C87.2441 29.8494 86.9002 29.6068 86.4857 29.4303C86.0712 29.2538 85.6171 29.1655 85.1188 29.1655C84.5368 29.1655 84.0253 29.2802 83.5844 29.5053C83.139 29.7347 82.7951 30.0524 82.5437 30.4583C82.2924 30.8643 82.1689 31.3408 82.1689 31.8747C82.1689 32.4086 82.2924 32.8807 82.5437 33.291C82.7951 33.7014 83.139 34.0191 83.5844 34.2485C84.0297 34.4779 84.5412 34.5927 85.1188 34.5927C85.6171 34.5927 86.0756 34.5044 86.4857 34.3235C86.9002 34.147 87.2397 33.8999 87.5087 33.5867C87.7777 33.2734 87.9452 32.9116 88.0114 32.4968H87.1339C87.0457 32.916 86.8208 33.2513 86.4549 33.5028C86.0889 33.7543 85.6435 33.8823 85.1188 33.8823C84.6999 33.8823 84.3339 33.8029 84.0209 33.6396C83.7078 33.4763 83.4653 33.2425 83.2933 32.9425C83.1214 32.6424 83.0332 32.285 83.0332 31.8747C83.0332 31.4643 83.1214 31.1069 83.2933 30.8069C83.4653 30.5069 83.7078 30.2774 84.0209 30.1098V30.1142Z" fill="#333333"/>
<path d="M89.0215 34.478H89.8725V29.9686H93.4617V34.478H94.3127V29.2847H89.0215V34.478Z" fill="#333333"/>
<path d="M100.084 29.5053C99.6212 29.2758 99.0833 29.1655 98.466 29.1655C97.8486 29.1655 97.3151 29.2802 96.8521 29.5053C96.3847 29.7347 96.0232 30.048 95.7674 30.4539C95.5073 30.8599 95.3794 31.332 95.3794 31.8747C95.3794 32.4174 95.5073 32.8851 95.7674 33.2954C96.0276 33.7058 96.3891 34.0279 96.8521 34.2529C97.3195 34.4824 97.8575 34.5927 98.466 34.5927C99.0745 34.5927 99.6212 34.4779 100.084 34.2529C100.547 34.0235 100.909 33.7058 101.173 33.2954C101.433 32.8851 101.566 32.4086 101.566 31.8747C101.566 31.3408 101.433 30.8599 101.173 30.4539C100.913 30.048 100.547 29.7303 100.084 29.5053ZM100.424 32.9469C100.243 33.2469 99.9828 33.4808 99.6521 33.644C99.3214 33.8073 98.9245 33.8867 98.466 33.8867C98.0074 33.8867 97.6238 33.8073 97.2842 33.644C96.9491 33.4808 96.689 33.2469 96.5126 32.9469C96.3318 32.6468 96.2436 32.2894 96.2436 31.8791C96.2436 31.4688 96.3318 31.1202 96.5126 30.8201C96.6934 30.5201 96.9491 30.2863 97.2842 30.1186C97.6194 29.9509 98.0118 29.8715 98.466 29.8715C98.9201 29.8715 99.317 29.9553 99.6521 30.1186C99.9872 30.2863 100.243 30.5201 100.424 30.8201C100.605 31.1202 100.697 31.4732 100.697 31.8791C100.697 32.285 100.605 32.6468 100.424 32.9469Z" fill="#333333"/>
<path d="M107.404 29.5053C107.007 29.2758 106.557 29.1655 106.046 29.1655C105.565 29.1655 105.124 29.2802 104.727 29.5053C104.33 29.7347 103.991 30.048 103.709 30.4539C103.625 30.5731 103.55 30.701 103.484 30.8334V29.2847H102.633V36.0002H103.484V32.9204C103.554 33.0528 103.629 33.1807 103.709 33.2999C103.991 33.7102 104.33 34.0279 104.727 34.2529C105.124 34.4824 105.565 34.5927 106.046 34.5927C106.557 34.5927 107.011 34.4779 107.404 34.2485C107.796 34.0191 108.109 33.697 108.334 33.291C108.559 32.8807 108.674 32.4086 108.674 31.8747C108.674 31.3408 108.559 30.8599 108.334 30.4539C108.109 30.048 107.801 29.7303 107.404 29.5053ZM107.558 32.9204C107.395 33.2204 107.17 33.4587 106.883 33.6264C106.597 33.794 106.271 33.8779 105.909 33.8779C105.547 33.8779 105.199 33.794 104.886 33.6264C104.573 33.4587 104.3 33.2204 104.057 32.9204C103.819 32.6204 103.616 32.2718 103.457 31.8791C103.616 31.4864 103.819 31.1378 104.057 30.8378C104.3 30.5378 104.573 30.2995 104.886 30.1318C105.199 29.9642 105.539 29.8759 105.909 29.8759C106.279 29.8759 106.597 29.9597 106.883 30.1318C107.17 30.2995 107.395 30.5378 107.558 30.8378C107.721 31.1378 107.805 31.4864 107.805 31.8791C107.805 32.2718 107.721 32.6204 107.558 32.9204Z" fill="#333333"/>
<path d="M108.93 29.9774H111.187V34.478H112.038V29.9774H114.296V29.2847H108.93V29.9774Z" fill="#333333"/>
<path d="M119.578 31.5085H115.94V29.2847H115.103V34.478H115.94V32.1968H119.578V34.478H120.429V29.2847H119.578V31.5085Z" fill="#333333"/>
<path d="M128.349 29.2847H127.498V34.478H128.349V29.2847Z" fill="#333333"/>
<path d="M125.875 31.2658C125.575 31.1246 125.227 31.054 124.826 31.054H122.661V29.2847H121.81V34.478H124.826C125.227 34.478 125.575 34.4074 125.875 34.2662C126.175 34.125 126.409 33.9264 126.572 33.6661C126.739 33.4102 126.823 33.1057 126.823 32.7616C126.823 32.4174 126.739 32.1262 126.572 31.8659C126.404 31.6055 126.17 31.407 125.875 31.2658ZM125.628 33.5205C125.412 33.7102 125.121 33.8029 124.751 33.8029H122.661V31.707H124.751C125.121 31.707 125.412 31.7997 125.628 31.9894C125.844 32.1747 125.95 32.4351 125.95 32.7616C125.95 33.0881 125.844 33.3352 125.628 33.5205Z" fill="#333333"/>
<path d="M132.476 28.7112C132.983 28.7112 133.393 28.5788 133.706 28.3185C134.019 28.0582 134.209 27.6831 134.27 27.1978H133.547C133.49 27.4978 133.371 27.7316 133.186 27.8949C133.001 28.0582 132.762 28.1376 132.471 28.1376C132.18 28.1376 131.951 28.0582 131.761 27.8949C131.572 27.7316 131.453 27.4978 131.395 27.1978H130.672C130.739 27.6831 130.928 28.0582 131.241 28.3185C131.554 28.5788 131.96 28.7112 132.467 28.7112H132.476Z" fill="#333333"/>
<path d="M130.571 33.6573V29.2847H129.729V34.478H130.809L134.491 30.0789V34.478H135.333V29.2847H134.23L130.571 33.6573Z" fill="#333333"/>
<path d="M144.491 29.2847H143.64V33.7852H140.126V29.2847H139.275V34.478H144.716V35.8237H145.466V33.7852H144.491V29.2847Z" fill="#333333"/>
<path d="M151.251 30.5731C151.022 30.1274 150.695 29.7833 150.276 29.5362C149.858 29.2891 149.368 29.1655 148.804 29.1655C148.239 29.1655 147.732 29.2802 147.296 29.5053C146.859 29.7347 146.515 30.048 146.268 30.4539C146.021 30.8599 145.898 31.332 145.898 31.8747C145.898 32.4174 146.03 32.8807 146.29 33.291C146.551 33.7014 146.912 34.0191 147.371 34.2485C147.829 34.4779 148.358 34.5927 148.958 34.5927C149.403 34.5927 149.844 34.5177 150.29 34.3676C150.735 34.2176 151.114 34.0147 151.436 33.7543V33.0925C151.11 33.3396 150.739 33.5337 150.329 33.6749C149.919 33.8161 149.5 33.8867 149.077 33.8867C148.61 33.8867 148.2 33.8029 147.856 33.6396C147.512 33.4763 147.243 33.2381 147.053 32.9292C146.908 32.6954 146.82 32.4262 146.784 32.1262H151.595C151.595 31.5349 151.48 31.0187 151.247 30.5731H151.251ZM147.732 30.1098C148.036 29.9465 148.389 29.8671 148.795 29.8671C149.17 29.8671 149.5 29.9421 149.787 30.0965C150.069 30.251 150.294 30.4672 150.462 30.7495C150.581 30.9569 150.664 31.1908 150.704 31.4511H146.802C146.842 31.2128 146.912 30.9922 147.022 30.7981C147.19 30.5025 147.428 30.273 147.732 30.1098Z" fill="#333333"/>
<path d="M157.128 31.5085H153.495V29.2847H152.653V34.478H153.495V32.1968H157.128V34.478H157.984V29.2847H157.128V31.5085Z" fill="#333333"/>
<path d="M158.787 29.9774H161.044V34.478H161.895V29.9774H164.153V29.2847H158.787V29.9774Z" fill="#333333"/>
<path d="M169.73 29.5053C169.334 29.2758 168.884 29.1655 168.372 29.1655C167.892 29.1655 167.451 29.2802 167.054 29.5053C166.657 29.7347 166.318 30.048 166.035 30.4539C165.952 30.5731 165.877 30.701 165.81 30.829V29.2802H164.959V35.9958H165.81V32.916C165.881 33.0484 165.956 33.1763 166.035 33.2954C166.318 33.7058 166.657 34.0235 167.054 34.2485C167.451 34.4779 167.892 34.5883 168.372 34.5883C168.884 34.5883 169.338 34.4735 169.73 34.2441C170.123 34.0147 170.436 33.6926 170.661 33.2866C170.886 32.8763 171 32.4042 171 31.8703C171 31.3364 170.886 30.8554 170.661 30.4495C170.436 30.0436 170.127 29.7259 169.73 29.5009V29.5053ZM169.885 32.9204C169.722 33.2204 169.497 33.4587 169.21 33.6264C168.924 33.794 168.597 33.8779 168.236 33.8779C167.874 33.8779 167.526 33.794 167.213 33.6264C166.9 33.4587 166.626 33.2204 166.384 32.9204C166.146 32.6204 165.943 32.2718 165.784 31.8791C165.943 31.4864 166.146 31.1378 166.384 30.8378C166.626 30.5378 166.9 30.2995 167.213 30.1318C167.526 29.9642 167.865 29.8759 168.236 29.8759C168.606 29.8759 168.924 29.9597 169.21 30.1318C169.497 30.2995 169.722 30.5378 169.885 30.8378C170.048 31.1378 170.132 31.4864 170.132 31.8791C170.132 32.2718 170.048 32.6204 169.885 32.9204Z" fill="#333333"/>
</g>
<defs>
<clipPath id="clip0_6992_10088">
<rect width="171" height="36" fill="white" transform="translate(0.000488281)"/>
</clipPath>
</defs>
</svg>
