<svg id="Layer_1" data-name="Layer 1" xmlns="http://www.w3.org/2000/svg" width="398.54" height="43.59" viewBox="0 0 398.54 43.59">
  <defs>
    <style>
      .cls-1 {
        fill: #999999;
      }

      .cls-1, .cls-2 {
        fill-rule: evenodd;
      }
    </style>
  </defs>
  <path class="cls-1" d="M103.07,28.75V43.59H86.24V21.31h61.15V43.59H130.62V28.75Z"/>
  <path class="cls-2" d="M16.41,43.59H0V0H23.11L36.62,24.49,50.37,0H72.53V43.59H55.88V16.4L40.41,43.59H31.82L16.41,16.4ZM77.73,21.31H139V0H122.27V13.66H94.72V0h-17Z"/>
  <path d="M158.33,0h8.37a6,6,0,0,1,1.6.18,2.79,2.79,0,0,1,1,.45,1.52,1.52,0,0,1,.52.65A1.88,1.88,0,0,1,170,2v.13a1.67,1.67,0,0,1-.15.73,1.85,1.85,0,0,1-.4.51,2.1,2.1,0,0,1-.5.34,3.53,3.53,0,0,1-.48.17,3.25,3.25,0,0,1,.65.21,2.63,2.63,0,0,1,.67.41,2.2,2.2,0,0,1,.51.67,2.13,2.13,0,0,1,.21,1v.14a2.72,2.72,0,0,1-.18,1,2,2,0,0,1-.6.83,3.39,3.39,0,0,1-1.16.55,7,7,0,0,1-1.81.2h-8.41Zm3.39,2V3.27h3.95a1,1,0,0,0,.71-.18.59.59,0,0,0,.2-.44v0a.54.54,0,0,0-.2-.43,1,1,0,0,0-.71-.18Zm0,3.25V6.8h4.16a1.61,1.61,0,0,0,.54-.07.82.82,0,0,0,.31-.18.54.54,0,0,0,.16-.24,1,1,0,0,0,0-.28V6a.86.86,0,0,0,0-.28.48.48,0,0,0-.16-.22.65.65,0,0,0-.32-.17,1.93,1.93,0,0,0-.53-.06Zm16.45.84V8.89h-3.4V0h7.41a7.75,7.75,0,0,1,2,.23,3.24,3.24,0,0,1,1.29.63,2.07,2.07,0,0,1,.69.93,3.35,3.35,0,0,1,.2,1.15v.19a3.35,3.35,0,0,1-.2,1.15,2.26,2.26,0,0,1-.7.94,3.54,3.54,0,0,1-1.29.65,7.28,7.28,0,0,1-2,.24Zm0-2.23h3.6a1.36,1.36,0,0,0,.85-.21.72.72,0,0,0,.28-.6V3a.74.74,0,0,0-.26-.6,1.36,1.36,0,0,0-.87-.22h-3.6Zm13.3-1.71L190,5.23h3Zm2.58,5.29H189l-.68,1.43h-3.44L189.25,0h4.56l4.65,8.89h-3.72ZM198.76,0h4.66l2.73,5,2.77-5h4.47V8.89H210V3.35l-3.12,5.54h-1.73l-3.11-5.54V8.89h-3.31Zm19.07,4.91v4h-3.4V0h3.4V3.51L222.2,0h4.22l-5.18,4,5.35,4.85h-4.42Zm15-2.74-1.46,3.06h3Zm2.58,5.29h-5.08l-.68,1.43h-3.44L230.65,0h4.56l4.65,8.89h-3.72Zm4.15,1.43,4.07-4.56L239.73,0h4.34l2.26,2.62L248.6,0h4l-3.84,4.29,4,4.6h-4.17l-2.48-2.78-2.46,2.78Zm-81.27,7.65H163l2.73,5,2.77-5H173v8.89H169.6V19.89l-3.12,5.54h-1.73l-3.11-5.54v5.54h-3.31Zm22.43-.16a12.75,12.75,0,0,1,2.48.21,7.35,7.35,0,0,1,1.75.56,4.22,4.22,0,0,1,1.16.8,3.42,3.42,0,0,1,.68.95,3.78,3.78,0,0,1,.33,1,6.12,6.12,0,0,1,.08.91v.36a6,6,0,0,1-.08.9,3.35,3.35,0,0,1-.33,1,3.58,3.58,0,0,1-.68.95,4,4,0,0,1-1.16.81,7.32,7.32,0,0,1-1.75.58,12.75,12.75,0,0,1-2.48.21h-.53a12.86,12.86,0,0,1-2.49-.21,7.56,7.56,0,0,1-1.76-.58,4.33,4.33,0,0,1-1.15-.81,3.87,3.87,0,0,1-.69-.95,4.46,4.46,0,0,1-.32-1,6,6,0,0,1-.08-.9v-.36a6,6,0,0,1,.07-.91,3.74,3.74,0,0,1,.32-1,4,4,0,0,1,.7-.95,4.32,4.32,0,0,1,1.15-.8,7.6,7.6,0,0,1,1.76-.56,12.72,12.72,0,0,1,2.49-.21Zm3,4.49a2,2,0,0,0-.15-.73,1.47,1.47,0,0,0-.49-.67,2.77,2.77,0,0,0-1-.5,5.46,5.46,0,0,0-1.61-.2,5.68,5.68,0,0,0-1.64.2,2.86,2.86,0,0,0-1,.5,1.61,1.61,0,0,0-.48.67,2.12,2.12,0,0,0-.13.73V21a2.27,2.27,0,0,0,.13.74,2,2,0,0,0,.5.71,3.11,3.11,0,0,0,1,.54,5.7,5.7,0,0,0,1.63.2,5.55,5.55,0,0,0,1.61-.2,2.78,2.78,0,0,0,1-.52,1.6,1.6,0,0,0,.49-.7,2,2,0,0,0,.15-.74ZM194,25.6a11.68,11.68,0,0,1-2.36-.21,7.88,7.88,0,0,1-1.7-.56A4.42,4.42,0,0,1,188.8,24a4.79,4.79,0,0,1-.68-.95,4,4,0,0,1-.32-1,6.25,6.25,0,0,1-.08-.92v-.34a6,6,0,0,1,.07-.91,3.28,3.28,0,0,1,.32-1,3.84,3.84,0,0,1,.67-.95,4.07,4.07,0,0,1,1.12-.8,7.31,7.31,0,0,1,1.71-.55,11.86,11.86,0,0,1,2.39-.21h.47a12.11,12.11,0,0,1,2.33.19,6.93,6.93,0,0,1,1.67.49,3.91,3.91,0,0,1,1.11.69,3.4,3.4,0,0,1,.67.79,2.61,2.61,0,0,1,.33.78,3.28,3.28,0,0,1,.08.65v.16h-3.53a1.49,1.49,0,0,0-.12-.31,1.16,1.16,0,0,0-.4-.46,2.9,2.9,0,0,0-.88-.41,5.12,5.12,0,0,0-1.52-.18,4.87,4.87,0,0,0-1.51.19,2.52,2.52,0,0,0-.91.48,1.6,1.6,0,0,0-.44.67,2.34,2.34,0,0,0-.12.74V21a2.57,2.57,0,0,0,.13.75,1.91,1.91,0,0,0,.47.72,2.71,2.71,0,0,0,.91.54,4.72,4.72,0,0,0,1.48.2,5.17,5.17,0,0,0,1.12-.1,4.17,4.17,0,0,0,.79-.23,2,2,0,0,0,.51-.31,2.15,2.15,0,0,0,.3-.34,1.39,1.39,0,0,0,.15-.3.85.85,0,0,0,0-.18h3.52v.19a3.75,3.75,0,0,1-.08.68,2.55,2.55,0,0,1-.34.79,3.43,3.43,0,0,1-.67.8,4.15,4.15,0,0,1-1.12.71,7.61,7.61,0,0,1-1.66.5,12.14,12.14,0,0,1-2.32.19Zm10.76-4.14v4h-3.39V16.54h3.39v3.52l4.37-3.52h4.22l-5.17,4,5.34,4.85H209.1Zm14.51-5.08a12.75,12.75,0,0,1,2.48.21,7.51,7.51,0,0,1,1.75.56,4.22,4.22,0,0,1,1.16.8,3.89,3.89,0,0,1,.68.95,3.41,3.41,0,0,1,.32,1,5.09,5.09,0,0,1,.09.91v.36a5,5,0,0,1-.09.9,3.06,3.06,0,0,1-.32,1,3.82,3.82,0,0,1-1.84,1.76,7.47,7.47,0,0,1-1.75.58,12.75,12.75,0,0,1-2.48.21h-.54a12.82,12.82,0,0,1-2.48-.21,7.56,7.56,0,0,1-1.76-.58,4.4,4.4,0,0,1-1.16-.81,4.09,4.09,0,0,1-.68-.95,3.63,3.63,0,0,1-.32-1,4.92,4.92,0,0,1-.08-.9v-.36a6,6,0,0,1,.07-.91,3.41,3.41,0,0,1,.32-1,4.24,4.24,0,0,1,.69-.95,4.38,4.38,0,0,1,1.16-.8,7.6,7.6,0,0,1,1.76-.56,12.68,12.68,0,0,1,2.48-.21Zm3,4.49a2,2,0,0,0-.15-.73,1.55,1.55,0,0,0-.49-.67,2.86,2.86,0,0,0-1-.5,5.46,5.46,0,0,0-1.61-.2,5.68,5.68,0,0,0-1.64.2,2.86,2.86,0,0,0-1,.5,1.61,1.61,0,0,0-.48.67,2.12,2.12,0,0,0-.13.73V21a2.27,2.27,0,0,0,.13.74,1.85,1.85,0,0,0,.5.71,3.11,3.11,0,0,0,1,.54,6.66,6.66,0,0,0,3.24,0,2.87,2.87,0,0,0,1-.52,1.69,1.69,0,0,0,.49-.7,2,2,0,0,0,.15-.74Zm4.28-4.33h8.37a6,6,0,0,1,1.6.18,2.88,2.88,0,0,1,1,.46,1.5,1.5,0,0,1,.52.64,1.92,1.92,0,0,1,.15.74v.14a1.62,1.62,0,0,1-.15.72,2.06,2.06,0,0,1-.4.52,1.89,1.89,0,0,1-.5.33,2.14,2.14,0,0,1-.48.17,4.16,4.16,0,0,1,.65.22,2.43,2.43,0,0,1,.67.4,2.17,2.17,0,0,1,.73,1.66v.15a2.72,2.72,0,0,1-.18,1,2,2,0,0,1-.61.82,3.13,3.13,0,0,1-1.16.55,6.58,6.58,0,0,1-1.8.2h-8.42Zm3.4,2v1.26h3.94a1.08,1.08,0,0,0,.72-.18.61.61,0,0,0,.19-.44v0a.54.54,0,0,0-.19-.43,1.08,1.08,0,0,0-.72-.18Zm0,3.25v1.53h4.16a1.54,1.54,0,0,0,.53-.07.82.82,0,0,0,.31-.18.47.47,0,0,0,.16-.24.86.86,0,0,0,0-.27v0a.86.86,0,0,0,0-.27.44.44,0,0,0-.16-.23.69.69,0,0,0-.32-.17,1.86,1.86,0,0,0-.52-.06Zm15.4,3.79a11.68,11.68,0,0,1-2.36-.21,7.88,7.88,0,0,1-1.7-.56,4.42,4.42,0,0,1-1.14-.83,4.79,4.79,0,0,1-.68-.95,4,4,0,0,1-.32-1,6.25,6.25,0,0,1-.08-.92v-.34a6,6,0,0,1,.07-.91,3.28,3.28,0,0,1,.32-1,3.84,3.84,0,0,1,.67-.95,4.07,4.07,0,0,1,1.12-.8,7.31,7.31,0,0,1,1.71-.55,11.86,11.86,0,0,1,2.39-.21h.47a12.11,12.11,0,0,1,2.33.19,6.93,6.93,0,0,1,1.67.49,3.91,3.91,0,0,1,1.11.69,3.4,3.4,0,0,1,.67.79,2.61,2.61,0,0,1,.33.78A3.28,3.28,0,0,1,252,20v.16h-3.53a1.49,1.49,0,0,0-.12-.31,1.16,1.16,0,0,0-.4-.46,2.9,2.9,0,0,0-.88-.41,5.12,5.12,0,0,0-1.52-.18A4.87,4.87,0,0,0,244,19a2.52,2.52,0,0,0-.91.48,1.6,1.6,0,0,0-.44.67,2.34,2.34,0,0,0-.12.74V21a2.57,2.57,0,0,0,.13.75,1.91,1.91,0,0,0,.47.72,2.71,2.71,0,0,0,.91.54,4.72,4.72,0,0,0,1.48.2,5.17,5.17,0,0,0,1.12-.1,4.17,4.17,0,0,0,.79-.23,2,2,0,0,0,.51-.31,2.15,2.15,0,0,0,.3-.34,1.39,1.39,0,0,0,.15-.3.85.85,0,0,0,.05-.18H252v.19a3.75,3.75,0,0,1-.08.68,2.55,2.55,0,0,1-.34.79,3.43,3.43,0,0,1-.67.8,4.15,4.15,0,0,1-1.12.71,7.61,7.61,0,0,1-1.66.5,12.14,12.14,0,0,1-2.32.19Zm10.76-4.14v4h-3.39V16.54h3.39v3.52l4.37-3.52h4.22l-5.17,4,5.34,4.85h-4.42Zm14.51-5.08a12.75,12.75,0,0,1,2.48.21,7.51,7.51,0,0,1,1.75.56A4.22,4.22,0,0,1,276,18a3.89,3.89,0,0,1,.68.95,3.41,3.41,0,0,1,.32,1,5.09,5.09,0,0,1,.09.91v.36a5,5,0,0,1-.09.9,3.06,3.06,0,0,1-.32,1,3.82,3.82,0,0,1-1.84,1.76,7.47,7.47,0,0,1-1.75.58,12.75,12.75,0,0,1-2.48.21h-.54a12.82,12.82,0,0,1-2.48-.21,7.56,7.56,0,0,1-1.76-.58,4.4,4.4,0,0,1-1.16-.81,4.09,4.09,0,0,1-.68-.95,3.63,3.63,0,0,1-.32-1,4.92,4.92,0,0,1-.08-.9v-.36a6,6,0,0,1,.07-.91,3.41,3.41,0,0,1,.32-1,4.24,4.24,0,0,1,.69-.95,4.38,4.38,0,0,1,1.16-.8,7.6,7.6,0,0,1,1.76-.56,12.68,12.68,0,0,1,2.48-.21Zm3,4.49a2,2,0,0,0-.15-.73,1.55,1.55,0,0,0-.49-.67,2.86,2.86,0,0,0-1-.5,5.46,5.46,0,0,0-1.61-.2,5.68,5.68,0,0,0-1.64.2,2.86,2.86,0,0,0-1,.5,1.61,1.61,0,0,0-.48.67,2.12,2.12,0,0,0-.13.73V21a2.27,2.27,0,0,0,.13.74,1.85,1.85,0,0,0,.5.71,3.11,3.11,0,0,0,1,.54,6.66,6.66,0,0,0,3.24,0,2.87,2.87,0,0,0,1-.52,1.69,1.69,0,0,0,.49-.7,2,2,0,0,0,.15-.74Zm13.22-1-5.58,5.58h-3.39V16.54h3.39v5.6l5.58-5.6h3.4v8.89h-3.4Zm-2.95-3.76a3.52,3.52,0,0,1-1.41-.23,2.18,2.18,0,0,1-.81-.55,1.57,1.57,0,0,1-.38-.67,2,2,0,0,1-.1-.58v0h2.19a.44.44,0,0,0,0,.15.93.93,0,0,0,.11.19.6.6,0,0,0,.23.17.9.9,0,0,0,.4.07.81.81,0,0,0,.38-.07.53.53,0,0,0,.23-.17.47.47,0,0,0,.11-.19,1,1,0,0,0,0-.15H287v0a1.81,1.81,0,0,1-.12.58,1.9,1.9,0,0,1-.41.67,2.4,2.4,0,0,1-.82.55,3.11,3.11,0,0,1-1.31.23Zm11.05.45h3.39v3.15h5.56V16.54h3.38v8.89h-3.38V22.05h-5.56v3.38h-3.39Zm23.28,0v2.18h-6.49v1.11H318V22h-6.36v1.22h6.58v2.22h-9.93V16.54Zm1.66,6.53a3.7,3.7,0,0,0,.31-.89,10,10,0,0,0,.19-1.27c.05-.51.08-1.12.1-1.83s0-1.56,0-2.54h10.34v6.53h1.43V27H329V25.43h-7.18V27h-3.19V23.07Zm7.57,0V18.91H323.5c0,.45,0,.89,0,1.3s-.06.8-.11,1.16a8,8,0,0,1-.16,1,2.75,2.75,0,0,1-.24.72Zm15.28-6.53v2.18h-6.48v1.11h6.35V22h-6.35v1.22h6.58v2.22h-9.93V16.54Zm9,2.29H348c0,.88,0,1.63,0,2.23s-.08,1.11-.14,1.52a5.63,5.63,0,0,1-.22,1,3.21,3.21,0,0,1-.31.67,2.45,2.45,0,0,1-.42.53,2.51,2.51,0,0,1-.58.37,3.36,3.36,0,0,1-.79.21,6.69,6.69,0,0,1-1.07.07h-1.09V22.9h.18a2.21,2.21,0,0,0,.57-.06.71.71,0,0,0,.38-.26,1.22,1.22,0,0,0,.2-.47,4.3,4.3,0,0,0,.15-1c0-.43.07-1,.08-1.75s0-1.68,0-2.84h10.15v8.89H351.7Zm13.44,1-5.58,5.58h-3.39V16.54h3.39v5.6l5.58-5.6h3.39v8.89h-3.39ZM158.29,33.09h11.93V42h-3.38V35.46h-5.15V42h-3.4Zm16.43,6.11V42h-3.39V33.09h7.41a7.75,7.75,0,0,1,2,.23,3.38,3.38,0,0,1,1.29.63,2,2,0,0,1,.68.93A3.13,3.13,0,0,1,183,36v.19a3.13,3.13,0,0,1-.21,1.15,2.15,2.15,0,0,1-.69.94,3.54,3.54,0,0,1-1.29.65,7.28,7.28,0,0,1-2,.24Zm0-2.23h3.61a1.38,1.38,0,0,0,.85-.21.74.74,0,0,0,.27-.6v0a.7.7,0,0,0-.26-.59,1.31,1.31,0,0,0-.86-.22h-3.61Zm18.77-3.88v2.17H187v1.12h6.35v2.16H187v1.22h6.58V42h-9.93V33.09Zm1.66,6.52a3.61,3.61,0,0,0,.31-.88,10.13,10.13,0,0,0,.19-1.28c0-.51.08-1.12.1-1.83s0-1.55,0-2.53h10.34v6.52h1.43v3.92h-3.19V42h-7.18v1.55H194V39.61Zm7.56,0V35.46h-3.88c0,.45,0,.88,0,1.3s-.06.8-.1,1.16a8.36,8.36,0,0,1-.16,1,2.8,2.8,0,0,1-.24.71Zm5.42-6.52h11.93V42h-3.38V35.46h-5.15V42h-3.4Zm16.43,6.11V42h-3.39V33.09h7.41a7.75,7.75,0,0,1,2,.23,3.38,3.38,0,0,1,1.29.63,2,2,0,0,1,.68.93A3.13,3.13,0,0,1,232.8,36v.19a3.13,3.13,0,0,1-.21,1.15,2.23,2.23,0,0,1-.69.94,3.54,3.54,0,0,1-1.29.65,7.28,7.28,0,0,1-2,.24Zm0-2.23h3.61a1.38,1.38,0,0,0,.85-.21.74.74,0,0,0,.27-.6v0a.73.73,0,0,0-.26-.59,1.31,1.31,0,0,0-.86-.22h-3.61Zm17.87-.57L236.85,42h-3.39V33.09h3.39v5.59l5.58-5.59h3.39V42h-3.39Zm4.47-3.31h3.39v3.14h5.56V33.09h3.38V42h-3.38V38.6h-5.56V42H246.9Zm22.38,3.31L263.7,42h-3.39V33.09h3.39v5.59l5.58-5.59h3.39V42h-3.39Zm4.5-3.31h4.66l2.73,5,2.77-5h4.47V42h-3.36V36.44L281.93,42H280.2l-3.11-5.54V42h-3.31Zm21.57,2.17-1.46,3.06h2.95Zm2.58,5.29h-5.08L292.17,42h-3.44l4.39-8.89h4.57L302.33,42h-3.71Zm6.43-5h-3.84V33.09h11.07v2.43h-3.84V42h-3.39Zm17.87-2.43v2.17h-6.49v1.12h6.36v2.16h-6.36v1.22h6.59V42H312.4V33.09Zm9,2.28h-3.68c0,.89,0,1.63,0,2.24s-.08,1.11-.15,1.51a6.09,6.09,0,0,1-.21,1,3.47,3.47,0,0,1-.31.67,2.39,2.39,0,0,1-.42.52,2,2,0,0,1-.59.37,3.14,3.14,0,0,1-.78.22A6.77,6.77,0,0,1,324,42h-1.1V39.45h.18a2.29,2.29,0,0,0,.58-.06.71.71,0,0,0,.38-.27,1.43,1.43,0,0,0,.2-.46,5.24,5.24,0,0,0,.14-1c0-.44.07-1,.09-1.76s0-1.68,0-2.83h10.16V42h-3.4Zm11.6.34a8.59,8.59,0,0,1,2.22.24,3.5,3.5,0,0,1,1.37.65,2.12,2.12,0,0,1,.71,1,3.51,3.51,0,0,1,.2,1.17v.19a3.57,3.57,0,0,1-.2,1.18,2.18,2.18,0,0,1-.7,1,3.73,3.73,0,0,1-1.37.67,8.57,8.57,0,0,1-2.23.24h-7.13V33.09h3.4v2.62Zm-.43,4.06a2.77,2.77,0,0,0,.69-.07,1.57,1.57,0,0,0,.43-.21.61.61,0,0,0,.22-.29.87.87,0,0,0,.07-.35v0a.77.77,0,0,0-.07-.34.61.61,0,0,0-.22-.29,1.32,1.32,0,0,0-.43-.19,2.77,2.77,0,0,0-.69-.07h-3.3v1.85Zm11.65,2.38a11,11,0,0,1-2.37-.22,7.37,7.37,0,0,1-1.7-.56,4.17,4.17,0,0,1-1.13-.82,3.78,3.78,0,0,1-1-1.95,6.36,6.36,0,0,1-.08-.92v-.35a7.7,7.7,0,0,1,.07-.91,4.23,4.23,0,0,1,.32-1,4.08,4.08,0,0,1,.67-.94,3.93,3.93,0,0,1,1.13-.8,6.87,6.87,0,0,1,1.71-.55,11.05,11.05,0,0,1,2.39-.22h.46a13,13,0,0,1,2.33.19,7.67,7.67,0,0,1,1.68.49,3.71,3.71,0,0,1,1.11.7,3,3,0,0,1,.66.79,2.67,2.67,0,0,1,.33.77,3.46,3.46,0,0,1,.08.66v.15H357.2l-.12-.31a1.2,1.2,0,0,0-.41-.45,2.71,2.71,0,0,0-.87-.42,6.34,6.34,0,0,0-3,0,2.52,2.52,0,0,0-.91.48,1.6,1.6,0,0,0-.44.67,2.39,2.39,0,0,0-.12.74v.14a2.69,2.69,0,0,0,.13.76,2,2,0,0,0,.47.71,2.5,2.5,0,0,0,.91.54,4.42,4.42,0,0,0,1.48.21,5.88,5.88,0,0,0,1.12-.1,3.22,3.22,0,0,0,.79-.24,2.23,2.23,0,0,0,.52-.31,4.09,4.09,0,0,0,.3-.33,1.27,1.27,0,0,0,.14-.3l.06-.18h3.51v.19a3.75,3.75,0,0,1-.08.68,2.66,2.66,0,0,1-.34.79,3.43,3.43,0,0,1-.67.8,4,4,0,0,1-1.12.7,7.42,7.42,0,0,1-1.66.51,12.93,12.93,0,0,1-2.32.19Zm10.8-6.63H361V33.09H372.1v2.43h-3.83V42h-3.4Zm8-2.43h8.37a6,6,0,0,1,1.6.18,2.79,2.79,0,0,1,1,.45,1.52,1.52,0,0,1,.52.65,1.88,1.88,0,0,1,.15.74v.13a1.67,1.67,0,0,1-.15.73,1.85,1.85,0,0,1-.4.51,2.1,2.1,0,0,1-.5.34A2.25,2.25,0,0,1,383,37a4.16,4.16,0,0,1,.65.22,2.47,2.47,0,0,1,.67.41,2.08,2.08,0,0,1,.51.67,2.13,2.13,0,0,1,.21,1v.14a2.71,2.71,0,0,1-.17,1,2.11,2.11,0,0,1-.61.83,3.39,3.39,0,0,1-1.16.55,7,7,0,0,1-1.81.2h-8.41Zm3.39,2v1.25h3.95a1,1,0,0,0,.71-.18.59.59,0,0,0,.2-.44v0a.54.54,0,0,0-.2-.43,1,1,0,0,0-.71-.18Zm0,3.25v1.53h4.16a1.86,1.86,0,0,0,.54-.07.82.82,0,0,0,.31-.18.54.54,0,0,0,.16-.24,1,1,0,0,0,0-.28v0a.86.86,0,0,0,0-.28.48.48,0,0,0-.16-.22.65.65,0,0,0-.32-.17,1.93,1.93,0,0,0-.53-.06Zm15-3.1-1.46,3.06h3Zm2.58,5.29h-5.07L388.14,42H384.7l4.4-8.89h4.56L398.31,42H394.6Z"/>
</svg>
