<svg width="60" height="60" viewBox="0 0 60 60" fill="none" xmlns="http://www.w3.org/2000/svg">
<circle cx="30" cy="30" r="30" fill="#F7F7F7"/>
<path d="M30.3202 28.4332C30.1687 28.4181 29.987 28.4181 29.8204 28.4332C28.0823 28.3742 26.4354 27.641 25.2284 26.3888C24.0215 25.1366 23.3493 23.4639 23.3542 21.7247C23.3542 18.0146 26.3526 15.0011 30.0779 15.0011C30.9598 14.9852 31.8363 15.1431 32.6572 15.466C33.4781 15.7888 34.2274 16.2701 34.8623 16.8825C35.4972 17.4949 36.0053 18.2264 36.3575 19.0351C36.7097 19.8438 36.8992 20.714 36.9151 21.596C36.931 22.478 36.773 23.3544 36.4502 24.1754C36.1274 24.9963 35.6461 25.7456 35.0337 26.3805C34.4213 27.0154 33.6898 27.5234 32.8811 27.8756C32.0723 28.2278 31.2021 28.4173 30.3202 28.4332ZM22.7485 34.0211C19.0838 36.4743 19.0838 40.4721 22.7485 42.9102C26.9129 45.6966 33.7426 45.6966 37.907 42.9102C41.5717 40.457 41.5717 36.4592 37.907 34.0211C33.7577 31.2499 26.9281 31.2499 22.7485 34.0211Z" stroke="#FF2C7E" stroke-width="2" stroke-linecap="round" stroke-linejoin="round"/>
</svg>
