<svg width="165" height="48" viewBox="0 0 165 48" fill="none" xmlns="http://www.w3.org/2000/svg">
<g clip-path="url(#clip0_7101_9215)">
<path d="M48.0963 5C46.3578 5 44.6747 5.23991 43.0747 5.68624V13.0954C44.6027 12.3813 46.3025 11.9684 48.0963 11.9684C53.5055 11.9684 58.0677 15.5949 59.5349 20.566H43.0747V27.5345H66.6216C66.8375 26.3907 66.9538 25.2079 66.9538 24.0028C66.9538 13.5083 58.5106 5 48.0963 5Z" fill="#1B1B1B"/>
<path d="M48.0963 36.0315C46.3025 36.0315 44.6027 35.6186 43.0747 34.9044V42.3137C44.6747 42.76 46.3578 42.9999 48.0963 42.9999C56.0302 42.9999 62.818 38.0567 65.6028 31.0659H57.7465C55.5762 34.0732 52.0661 36.0315 48.0963 36.0315Z" fill="#1B1B1B"/>
<path d="M18.0768 14.4511L9.09654 5.05011H0L18.0768 23.9693L29.2385 12.2863V25.007C29.2883 26.4129 29.5264 27.7575 29.9085 29.0407C30.9548 32.8904 33.1694 36.2546 36.1537 38.7151V5.05011H27.0571L18.0713 14.4511H18.0768Z" fill="#1B1B1B"/>
</g>
<g clip-path="url(#clip1_7101_9215)">
<path d="M115.106 39.0668H107.7L107.7 32.217H114.838C115.856 32.217 116.686 32.9855 116.686 34.0103C116.686 34.4554 116.539 34.8463 116.284 35.17C116.86 35.561 117.222 36.2082 117.222 36.9498C117.222 38.1094 116.271 39.0668 115.106 39.0668ZM114.838 33.2687H108.745V34.8059H114.892C115.267 34.8059 115.615 34.4149 115.615 33.9969C115.628 33.5518 115.267 33.2687 114.838 33.2687ZM115.106 35.8711H108.745V38.015H115.106C115.682 38.015 116.164 37.5297 116.164 36.9498C116.164 36.343 115.682 35.8711 115.106 35.8711ZM127.627 40.1051V39.0668H118.829V32.217H119.873V38.015H126.743V32.217H127.788V38.015H128.658V40.1051H127.627ZM137.992 39.0668V33.6058L131.122 39.0668H130.078V32.217H131.122V37.678L137.992 32.217H139.037V39.0668H137.992ZM147.514 39.0668H144.072C142.17 39.0668 140.63 37.5297 140.63 35.6014C140.63 33.6867 142.157 32.2035 144.072 32.2035H147.514C149.415 32.2035 150.955 33.6867 150.955 35.6014C150.942 37.5297 149.402 39.0668 147.514 39.0668ZM147.514 33.2687H144.072C142.76 33.2687 141.688 34.2934 141.688 35.6149C141.688 36.9363 142.746 38.015 144.072 38.015H147.514C148.826 38.015 149.897 36.9363 149.897 35.6149C149.897 34.2934 148.813 33.2687 147.514 33.2687ZM163.115 39.0668V33.6058C158.347 37.3948 158.347 37.3948 158.347 37.3813L153.58 33.6058V39.0668H152.535V32.217H153.58L158.347 36.006L163.115 32.217H164.159V39.0668H163.115ZM109.026 45.2829C109.026 45.6605 108.718 45.9706 108.343 45.9706C107.968 45.9706 107.66 45.6605 107.66 45.2829C107.66 44.9054 107.968 44.5953 108.343 44.5953C108.731 44.5953 109.026 44.9054 109.026 45.2829ZM164.159 45.2829C164.159 45.6605 163.851 45.9706 163.476 45.9706C163.102 45.9706 162.793 45.6605 162.793 45.2829C162.793 44.9054 163.102 44.5953 163.476 44.5953C163.851 44.5953 164.159 44.9054 164.159 45.2829Z" fill="#00A48A"/>
<path d="M111.892 44.7707C111.892 43.8674 112.588 43.2066 113.459 43.2066C114.329 43.2066 115.026 43.8674 115.026 44.7707C115.026 45.6742 114.329 46.3349 113.459 46.3349C112.588 46.3349 111.892 45.6742 111.892 44.7707ZM112.24 44.7707C112.24 45.4719 112.789 46.0248 113.459 46.0248C114.128 46.0248 114.678 45.4719 114.678 44.7707C114.678 44.0696 114.128 43.5168 113.459 43.5168C112.789 43.5168 112.24 44.0831 112.24 44.7707ZM117.476 44.9326C117.302 44.7168 117.061 44.6494 116.887 44.6494C116.539 44.6494 116.218 44.8921 116.218 45.3506C116.218 45.8091 116.539 46.0517 116.874 46.0517C117.061 46.0517 117.302 45.9708 117.476 45.7551V46.1461C117.276 46.2945 117.061 46.3349 116.887 46.3349C116.311 46.3349 115.883 45.9169 115.883 45.3506C115.883 44.7707 116.311 44.3528 116.887 44.3528C117.182 44.3528 117.383 44.4741 117.463 44.5281V44.9326H117.476ZM118.441 44.4067H118.762V45.1753H119.646V44.4067H119.967V46.2945H119.646V45.4854H118.762V46.2945H118.441V44.4067ZM120.918 45.3506C120.918 44.7843 121.333 44.3528 121.909 44.3528C122.485 44.3528 122.9 44.7707 122.9 45.3506C122.9 45.9169 122.472 46.3349 121.909 46.3349C121.347 46.3483 120.918 45.9304 120.918 45.3506ZM121.253 45.3506C121.253 45.8091 121.574 46.0517 121.909 46.0517C122.244 46.0517 122.565 45.8091 122.565 45.3506C122.565 44.8921 122.244 44.6494 121.909 44.6494C121.574 44.6494 121.253 44.8921 121.253 45.3506ZM124.561 44.4067C124.654 44.4067 124.828 44.4067 124.949 44.5146C125.016 44.5685 125.11 44.6763 125.11 44.8651C125.11 45.0539 125.016 45.1753 124.909 45.2427C124.962 45.2562 125.056 45.2832 125.15 45.3641C125.257 45.4585 125.297 45.5798 125.297 45.7282C125.297 45.9304 125.203 46.0787 125.11 46.1596C125.002 46.2405 124.815 46.281 124.668 46.281H123.864V44.3932H124.561V44.4067ZM124.52 45.1753C124.547 45.1753 124.654 45.1753 124.721 45.1213C124.761 45.0944 124.815 45.0404 124.815 44.9326C124.815 44.8382 124.775 44.7843 124.721 44.7572C124.641 44.7034 124.561 44.7168 124.453 44.7168H124.159V45.1888H124.52V45.1753ZM124.574 45.9978C124.668 45.9978 124.788 45.9978 124.869 45.9304C124.922 45.8899 124.976 45.8091 124.976 45.7282C124.976 45.6472 124.949 45.5663 124.882 45.5123C124.802 45.445 124.681 45.445 124.587 45.445H124.172V45.9978H124.574ZM127.681 44.4067H128.002V46.2945H127.681V46.0248C127.574 46.1596 127.373 46.3483 127.038 46.3483C126.569 46.3484 126.127 46.0113 126.127 45.3506C126.127 44.7034 126.556 44.3662 127.038 44.3662C127.4 44.3662 127.587 44.5685 127.681 44.6763V44.4067ZM126.462 45.3506C126.462 45.7551 126.69 46.0652 127.078 46.0652C127.48 46.0652 127.694 45.7281 127.694 45.3641C127.694 44.8787 127.359 44.6629 127.078 44.6629C126.757 44.6494 126.462 44.8921 126.462 45.3506ZM129.06 44.4067H129.382V45.1753H130.265V44.4067H130.587V46.2945H130.265V45.4854H129.382V46.2945H129.06V44.4067ZM133.868 44.4067C133.961 44.4067 134.136 44.4067 134.256 44.5146C134.323 44.5685 134.417 44.6763 134.417 44.8651C134.417 45.0539 134.323 45.1753 134.216 45.2427C134.27 45.2562 134.363 45.2832 134.457 45.3641C134.564 45.4585 134.604 45.5798 134.604 45.7281C134.604 45.9304 134.511 46.0787 134.417 46.1596C134.31 46.2405 134.122 46.281 133.975 46.281H133.171V44.3932H133.868V44.4067ZM133.828 45.1753C133.854 45.1753 133.961 45.1753 134.028 45.1213C134.069 45.0944 134.122 45.0404 134.122 44.9325C134.122 44.8382 134.082 44.7843 134.028 44.7572C133.948 44.7034 133.868 44.7168 133.761 44.7168H133.466V45.1888H133.828V45.1753ZM133.895 45.9978C133.988 45.9978 134.109 45.9978 134.189 45.9304C134.243 45.8899 134.296 45.8091 134.296 45.7281C134.296 45.6472 134.27 45.5663 134.202 45.5123C134.122 45.445 134.002 45.445 133.908 45.445H133.493V45.9978H133.895ZM138.287 43.5842H137.778L137.952 43.2605H138.622V46.2945H138.287V43.5842ZM140.564 46.1731L141.26 45.2022C141.18 45.2292 141.086 45.2427 140.992 45.2427C140.416 45.2427 140.015 44.8112 140.015 44.2449C140.015 43.6381 140.443 43.2066 141.046 43.2066C141.755 43.2066 142.09 43.7595 142.09 44.2314C142.09 44.3393 142.063 44.609 141.836 44.9325L140.818 46.3619L140.564 46.1731ZM140.336 44.2449C140.336 44.6494 140.631 44.946 141.046 44.946C141.461 44.946 141.742 44.6359 141.742 44.2449C141.742 43.8403 141.461 43.5167 141.032 43.5167C140.631 43.5167 140.336 43.8268 140.336 44.2449ZM144.983 45.4585C144.983 45.9304 144.675 46.3483 144.059 46.3483C143.443 46.3483 143.135 45.9304 143.135 45.4585C143.135 45.1348 143.282 44.8516 143.59 44.7168C143.349 44.5819 143.228 44.3393 143.228 44.0561C143.228 43.6246 143.523 43.2201 144.059 43.2201C144.594 43.2201 144.889 43.6246 144.889 44.0561C144.889 44.3393 144.768 44.5819 144.528 44.7168C144.835 44.8516 144.983 45.1213 144.983 45.4585ZM144.648 45.445C144.648 45.1078 144.407 44.8651 144.059 44.8651C143.71 44.8651 143.47 45.1079 143.47 45.445C143.47 45.7955 143.71 46.0382 144.059 46.0382C144.407 46.0382 144.648 45.7955 144.648 45.445ZM144.568 44.0561C144.568 43.719 144.327 43.5167 144.059 43.5167C143.791 43.5167 143.55 43.719 143.55 44.0561C143.55 44.3528 143.778 44.5819 144.059 44.5819C144.34 44.5819 144.568 44.3528 144.568 44.0561ZM147.741 43.5707H146.094V43.2605H148.304L146.295 46.3619L146.027 46.1866L147.741 43.5707ZM150.607 44.4067H151.719V44.7034H150.929V46.2945H150.607V44.4067ZM152.388 45.3506C152.388 44.7843 152.803 44.3528 153.379 44.3528C153.955 44.3528 154.37 44.7707 154.37 45.3506C154.37 45.9169 153.942 46.3349 153.379 46.3349C152.817 46.3349 152.388 45.9304 152.388 45.3506ZM152.71 45.3506C152.71 45.8091 153.031 46.0517 153.366 46.0517C153.701 46.0517 154.022 45.8091 154.022 45.3506C154.022 44.8921 153.701 44.6494 153.366 44.6494C153.031 44.6494 152.71 44.8921 152.71 45.3506ZM156.767 44.4067V45.9978H157.049V46.7933H156.754V46.2945H155.334V46.7933H155.026V45.9978C155.187 45.9978 155.308 45.8899 155.375 45.7551C155.442 45.6203 155.455 45.445 155.455 45.2562V44.4202H156.767V44.4067ZM156.446 44.7034H155.776V45.4179C155.776 45.6338 155.723 45.836 155.549 45.9978H156.446V44.7034ZM158.428 46.1192L157.571 44.4067H157.946L158.615 45.7551L159.218 44.4067H159.58L158.2 47.3597H157.839L158.428 46.1192Z" fill="#00A48A"/>
<path d="M136.827 2.9031C136.466 2.02663 135.93 1.27153 135.22 0.651268L134.805 0.287201L134.39 0.651268C133.68 1.27153 133.145 2.02663 132.783 2.9031C131.899 5.06054 132.341 7.48764 133.841 9.18663C133.613 9.33495 133.386 9.45631 133.131 9.56415C132.89 9.67207 132.636 9.75295 132.381 9.80695C132.247 7.5281 130.855 5.50551 128.739 4.61555C128.016 4.31891 127.252 4.15711 126.475 4.15711C126.328 4.15711 126.181 4.15711 126.034 4.17059L125.484 4.21104L125.444 4.76388C125.377 5.70776 125.525 6.62467 125.873 7.50113C126.797 9.75295 128.94 11.2092 131.35 11.2092C131.497 11.2092 131.645 11.2092 131.779 11.1958C132.408 11.1418 133.024 10.9935 133.6 10.7507C134.176 10.5081 134.711 10.171 135.193 9.75295C137.162 8.04047 137.805 5.28976 136.827 2.9031ZM127.065 7.00223C126.85 6.48983 126.743 5.96395 126.717 5.42459C127.252 5.45156 127.761 5.57292 128.27 5.77519C129.957 6.47635 131.055 8.09439 131.136 9.90135C129.328 9.82031 127.748 8.70119 127.065 7.00223ZM134.805 8.36407C133.613 7.02919 133.265 5.08749 133.961 3.38851C134.162 2.87612 134.457 2.43115 134.805 2.02663C135.167 2.41767 135.448 2.87612 135.649 3.38851C136.359 5.08749 136.01 7.01571 134.805 8.36407ZM131.939 14.8499C131.698 14.2566 131.363 13.7172 130.948 13.2318C129.823 11.9104 128.19 11.1418 126.462 11.1418C125.685 11.1418 124.922 11.2902 124.199 11.6002C123.342 11.9643 122.592 12.5038 121.976 13.2318L121.628 13.6498L121.976 14.0678C122.592 14.7825 123.329 15.3354 124.199 15.6994C124.922 16.0095 125.685 16.1578 126.462 16.1578C127.922 16.1578 129.328 15.6185 130.399 14.6342C130.533 14.8634 130.667 15.0926 130.761 15.3488C130.948 15.8073 131.136 16.3062 131.136 16.805V26.7023H118.842V27.9428H132.381V16.6972C132.341 16.0634 132.18 15.4432 131.939 14.8499ZM126.475 14.8634C125.859 14.8634 125.27 14.742 124.694 14.4994C124.199 14.2835 123.744 14.0004 123.355 13.6363C123.744 13.2722 124.199 12.9756 124.694 12.7734C125.257 12.5306 125.859 12.4094 126.475 12.4094C127.641 12.4094 128.752 12.8543 129.609 13.6363C128.752 14.4319 127.641 14.8634 126.475 14.8634ZM138.501 26.6889V16.7646C138.541 16.2657 138.648 15.7938 138.836 15.3218C138.943 15.0791 139.064 14.8364 139.198 14.6072C140.269 15.578 141.675 16.131 143.135 16.131C143.911 16.131 144.675 15.9826 145.398 15.6724C146.255 15.3083 147.005 14.769 147.621 14.0409L147.969 13.6228L147.621 13.2049C147.018 12.4902 146.268 11.9374 145.398 11.5734C144.675 11.2632 143.911 11.1148 143.135 11.1148C141.675 11.1148 140.269 11.6542 139.198 12.6386C139.064 12.4094 138.93 12.1801 138.836 11.9239C138.729 11.6678 138.648 11.4114 138.595 11.1553C140.858 11.0204 142.84 9.60463 143.724 7.46067C144.085 6.58421 144.233 5.66731 144.152 4.72343L144.112 4.17059L143.577 4.13014C143.429 4.11665 143.282 4.11665 143.135 4.11665C142.358 4.11665 141.595 4.26497 140.872 4.57511C138.515 5.59988 137.055 8.00007 137.242 10.589V10.6025C137.296 11.2362 137.43 11.843 137.671 12.4362C137.845 12.8678 138.073 13.2722 138.34 13.6498C138.073 14.0274 137.845 14.4319 137.671 14.8634C137.43 15.4567 137.283 16.077 137.242 16.7106V27.9294H150.781V26.6889H138.501ZM143.148 12.4227C143.764 12.4227 144.353 12.5442 144.929 12.7868C145.425 13.0026 145.88 13.2858 146.282 13.6498C145.893 14.0138 145.438 14.3106 144.929 14.5128C144.367 14.7555 143.764 14.8769 143.148 14.8769C141.983 14.8769 140.872 14.4319 140.014 13.6498C140.872 12.8543 141.983 12.4227 143.148 12.4227ZM141.367 5.77519C141.862 5.57291 142.385 5.45156 142.92 5.42459C142.894 5.96395 142.773 6.48983 142.572 7.00223C141.876 8.70119 140.296 9.82031 138.501 9.91471C138.582 8.09439 139.68 6.48983 141.367 5.77519Z" fill="#00A48A"/>
</g>
<path fill-rule="evenodd" clip-rule="evenodd" d="M96.5666 17.5664C96.641 17.492 96.7 17.4037 96.7403 17.3065C96.7805 17.2093 96.8012 17.1052 96.8012 17C96.8012 16.8948 96.7805 16.7906 96.7403 16.6935C96.7 16.5963 96.641 16.508 96.5666 16.4336C96.4922 16.3592 96.4039 16.3002 96.3068 16.2599C96.2096 16.2197 96.1054 16.199 96.0002 16.199C95.895 16.199 95.7909 16.2197 95.6937 16.2599C95.5965 16.3002 95.5082 16.3592 95.4338 16.4336L88.0002 23.8688L80.5666 16.4336C80.4922 16.3592 80.4039 16.3002 80.3068 16.2599C80.2096 16.2197 80.1054 16.199 80.0002 16.199C79.895 16.199 79.7909 16.2197 79.6937 16.2599C79.5965 16.3002 79.5082 16.3592 79.4338 16.4336C79.3594 16.508 79.3004 16.5963 79.2602 16.6935C79.2199 16.7906 79.1992 16.8948 79.1992 17C79.1992 17.1052 79.2199 17.2093 79.2602 17.3065C79.3004 17.4037 79.3594 17.492 79.4338 17.5664L86.869 25L79.4338 32.4336C79.2836 32.5838 79.1992 32.7875 79.1992 33C79.1992 33.2124 79.2836 33.4162 79.4338 33.5664C79.584 33.7166 79.7878 33.801 80.0002 33.801C80.2127 33.801 80.4164 33.7166 80.5666 33.5664L88.0002 26.1312L95.4338 33.5664C95.584 33.7166 95.7878 33.801 96.0002 33.801C96.2127 33.801 96.4164 33.7166 96.5666 33.5664C96.7168 33.4162 96.8012 33.2124 96.8012 33C96.8012 32.7875 96.7168 32.5838 96.5666 32.4336L89.1314 25L96.5666 17.5664Z" fill="black"/>
<defs>
<clipPath id="clip0_7101_9215">
<rect width="67" height="38" fill="white" transform="translate(0 5)"/>
</clipPath>
<clipPath id="clip1_7101_9215">
<rect width="58" height="48" fill="white" transform="translate(107)"/>
</clipPath>
</defs>
</svg>
