<svg width="6300" height="251" viewBox="0 0 6300 251" fill="none" xmlns="http://www.w3.org/2000/svg">
<path d="M369.745 45.017H378.497V178.686H351.644V108.669L318.624 150.042H309.872L276.853 108.669V178.686H250V45.017H258.752L314.248 116.028L369.745 45.017Z" fill="white"/>
<path d="M401.143 113.045C400.878 94.3471 407.641 78.2353 421.432 64.7093C435.356 51.1833 451.799 44.6192 470.762 45.017C489.725 44.6192 506.168 51.1833 520.092 64.7093C534.149 78.2353 541.044 94.3471 540.779 113.045C541.044 131.742 534.149 147.854 520.092 161.38C506.168 174.906 489.725 181.47 470.762 181.072C451.799 181.47 435.356 174.906 421.432 161.38C407.641 147.854 400.878 131.742 401.143 113.045ZM513.13 113.045C513.13 100.58 509.086 90.3026 500.997 82.2135C493.04 73.9918 483.028 69.881 470.961 69.881C458.761 69.881 448.683 73.9255 440.727 82.0146C432.77 90.1036 428.792 100.447 428.792 113.045C428.792 125.642 432.77 135.986 440.727 144.075C448.683 152.164 458.761 156.209 470.961 156.209C483.028 156.209 493.04 152.164 500.997 144.075C509.086 135.986 513.13 125.642 513.13 113.045Z" fill="white"/>
<path d="M555.96 113.045C555.695 94.2145 562.524 78.1027 576.448 64.7093C590.372 51.1833 606.881 44.6192 625.977 45.017C638.442 45.017 649.714 47.9344 659.792 53.7692C670.002 59.4713 678.025 67.4277 683.86 77.6385L663.571 91.9601C654.156 77.2407 641.624 69.881 625.977 69.881C613.777 69.881 603.632 73.9918 595.543 82.2135C587.587 90.4352 583.609 100.779 583.609 113.244C583.609 125.709 587.587 135.986 595.543 144.075C603.632 152.164 613.777 156.209 625.977 156.209C641.624 156.209 654.156 148.849 663.571 134.129L683.86 148.451C678.158 158.662 670.201 166.685 659.991 172.519C649.78 178.221 638.376 181.072 625.778 181.072C606.55 181.47 589.974 174.973 576.05 161.579C562.259 148.053 555.562 131.875 555.96 113.045Z" fill="white"/>
<path d="M822.248 178.686H789.825L733.533 110.26V178.686H706.68V47.404H733.533V108.271L783.659 47.404H815.684L765.359 109.265L822.248 178.686Z" fill="white"/>
<path d="M822.47 113.045C822.205 94.3471 828.968 78.2353 842.759 64.7093C856.683 51.1833 873.126 44.6192 892.089 45.017C911.052 44.6192 927.495 51.1833 941.419 64.7093C955.476 78.2353 962.371 94.3471 962.106 113.045C962.371 131.742 955.476 147.854 941.419 161.38C927.495 174.906 911.052 181.47 892.089 181.072C873.126 181.47 856.683 174.906 842.759 161.38C828.968 147.854 822.205 131.742 822.47 113.045ZM934.457 113.045C934.457 100.58 930.413 90.3026 922.324 82.2135C914.367 73.9918 904.355 69.881 892.288 69.881C880.088 69.881 870.01 73.9255 862.054 82.0146C854.097 90.1036 850.119 100.447 850.119 113.045C850.119 125.642 854.097 135.986 862.054 144.075C870.01 152.164 880.088 156.209 892.288 156.209C904.355 156.209 914.367 152.164 922.324 144.075C930.413 135.986 934.457 125.642 934.457 113.045Z" fill="white"/>
<path d="M1086.49 140.097C1086.49 151.368 1082.44 160.651 1074.36 167.944C1066.27 175.105 1055.92 178.686 1043.33 178.686H984.846V47.404H1031.39C1043.59 47.404 1053.54 50.8518 1061.23 57.7474C1069.05 64.5104 1072.96 73.2625 1072.96 84.0037C1072.96 93.684 1069.71 101.574 1063.22 107.674C1078.73 113.376 1086.49 124.184 1086.49 140.097ZM1029.2 70.4777H1010.7V100.513H1029.2C1034.64 100.513 1038.82 99.1873 1041.73 96.5351C1044.78 93.883 1046.31 90.1699 1046.31 85.3961C1046.31 80.7548 1044.78 77.1081 1041.73 74.4559C1038.82 71.8038 1034.64 70.4777 1029.2 70.4777ZM1060.03 139.102C1060.03 134.063 1058.38 130.085 1055.06 127.167C1051.75 124.117 1047.17 122.593 1041.34 122.593H1010.7V155.612H1041.34C1047.17 155.612 1051.75 154.153 1055.06 151.236C1058.38 148.318 1060.03 144.274 1060.03 139.102Z" fill="white"/>
<path d="M1100.83 113.045C1100.56 94.2145 1107.39 78.1027 1121.32 64.7093C1135.24 51.1833 1151.75 44.6192 1170.85 45.017C1183.31 45.017 1194.58 47.9344 1204.66 53.7692C1214.87 59.4713 1222.89 67.4277 1228.73 77.6385L1208.44 91.9601C1199.03 77.2407 1186.49 69.881 1170.85 69.881C1158.65 69.881 1148.5 73.9918 1140.41 82.2135C1132.46 90.4352 1128.48 100.779 1128.48 113.244C1128.48 125.709 1132.46 135.986 1140.41 144.075C1148.5 152.164 1158.65 156.209 1170.85 156.209C1186.49 156.209 1199.03 148.849 1208.44 134.129L1228.73 148.451C1223.03 158.662 1215.07 166.685 1204.86 172.519C1194.65 178.221 1183.25 181.072 1170.65 181.072C1151.42 181.47 1134.84 174.973 1120.92 161.579C1107.13 148.053 1100.43 131.875 1100.83 113.045Z" fill="white"/>
<path d="M1367.12 178.686H1334.69L1278.4 110.26V178.686H1251.55V47.404H1278.4V108.271L1328.53 47.404H1360.55L1310.23 109.265L1367.12 178.686Z" fill="white"/>
<path d="M1469.54 178.686L1462.18 161.579H1408.48L1401.12 178.686H1372.27L1430.95 45.017H1439.9L1498.38 178.686H1469.54ZM1452.83 139.5L1435.33 95.1427L1417.82 139.5H1452.83Z" fill="white"/>
<path d="M1565.44 47.404H1611.79V178.686H1584.94V135.124H1567.83L1537.2 178.686H1508.36L1541.97 130.549C1533.62 126.969 1526.99 121.731 1522.08 114.835C1517.31 107.807 1514.92 99.9166 1514.92 91.1645C1514.92 78.169 1519.56 67.6266 1528.84 59.5376C1538.26 51.4485 1550.46 47.404 1565.44 47.404ZM1584.94 111.453V71.0744H1564.65C1558.02 71.0744 1552.65 72.931 1548.54 76.644C1544.42 80.357 1542.37 85.2635 1542.37 91.3634C1542.37 97.4634 1544.42 102.37 1548.54 106.083C1552.65 109.663 1558.02 111.453 1564.65 111.453H1584.94Z" fill="white"/>
<path d="M1697.74 178.686V47.404H1724.59V97.7286H1782.68V47.404H1809.53V178.686H1782.68V121.996H1724.59V178.686H1697.74Z" fill="white"/>
<path d="M1839.54 178.686V47.404H1927.86V71.6712H1866.4V98.3253H1911.55V121.2H1866.4V154.418H1930.25V178.686H1839.54Z" fill="white"/>
<path d="M2059.59 154.418H2077.09V206.732H2050.24V178.686H1968.49V206.732H1941.63V154.418H1952.18C1962.92 145.534 1968.29 117.089 1968.29 69.0853V47.404H2059.59V154.418ZM1981.41 154.418H2032.73V71.6712H1993.55C1992.89 112.382 1988.84 139.964 1981.41 154.418Z" fill="white"/>
<path d="M2096.92 178.686V47.404H2185.24V71.6712H2123.78V98.3253H2168.93V121.2H2123.78V154.418H2187.63V178.686H2096.92Z" fill="white"/>
<path d="M2224.08 47.404H2314.18V178.686H2287.33V71.6712H2249.54C2249.01 99.6514 2247.08 121.598 2243.77 137.511C2240.59 153.424 2236.08 164.563 2230.24 170.928C2224.54 177.161 2216.85 180.409 2207.17 180.675C2203.19 180.675 2199.41 180.012 2195.83 178.686V155.811C2196.89 156.076 2198.68 156.209 2201.2 156.209C2209.16 156.209 2214.79 149.644 2218.11 136.516C2221.56 123.388 2223.48 101.773 2223.88 71.6712L2224.08 47.404Z" fill="white"/>
<path d="M2393.53 47.404H2439.87V178.686H2413.02V135.124H2395.92L2365.28 178.686H2336.44L2370.06 130.549C2361.7 126.969 2355.07 121.731 2350.17 114.835C2345.39 107.807 2343 99.9166 2343 91.1645C2343 78.169 2347.65 67.6266 2356.93 59.5376C2366.34 51.4485 2378.54 47.404 2393.53 47.404ZM2413.02 111.453V71.0744H2392.73C2386.1 71.0744 2380.73 72.931 2376.62 76.644C2372.51 80.357 2370.45 85.2635 2370.45 91.3634C2370.45 97.4634 2372.51 102.37 2376.62 106.083C2380.73 109.663 2386.1 111.453 2392.73 111.453H2413.02Z" fill="white"/>
<path d="M2525.83 178.686V47.404H2635.63V178.686H2608.77V71.6712H2552.68V178.686H2525.83Z" fill="white"/>
<path d="M2665.69 178.686V47.404H2715.02C2728.81 47.404 2740.15 51.3159 2749.03 59.1398C2757.91 66.9636 2762.36 77.1744 2762.36 89.7721C2762.36 102.237 2757.91 112.448 2749.03 120.404C2740.15 128.361 2728.81 132.339 2715.02 132.339H2692.54V178.686H2665.69ZM2692.54 108.868H2715.02C2721.25 108.868 2726.09 107.144 2729.54 103.696C2733.12 100.116 2734.91 95.4742 2734.91 89.7721C2734.91 84.2026 2733.05 79.6939 2729.34 76.2461C2725.76 72.7984 2720.98 71.0744 2715.02 71.0744H2692.54V108.868Z" fill="white"/>
<path d="M2783.79 178.686V47.404H2872.11V71.6712H2810.64V98.3253H2855.8V121.2H2810.64V154.418H2874.49V178.686H2783.79Z" fill="white"/>
<path d="M3003.83 154.418H3021.34V206.732H2994.48V178.686H2912.73V206.732H2885.88V154.418H2896.42C2907.16 145.534 2912.53 117.089 2912.53 69.0853V47.404H3003.83V154.418ZM2925.66 154.418H2976.98V71.6712H2937.8C2937.13 112.382 2933.09 139.964 2925.66 154.418Z" fill="white"/>
<path d="M3041.17 178.686V47.404H3150.97V178.686H3124.12V71.6712H3068.02V178.686H3041.17Z" fill="white"/>
<path d="M3181.03 178.686V47.404H3230.36C3244.15 47.404 3255.49 51.3159 3264.37 59.1398C3273.26 66.9636 3277.7 77.1744 3277.7 89.7721C3277.7 102.237 3273.26 112.448 3264.37 120.404C3255.49 128.361 3244.15 132.339 3230.36 132.339H3207.88V178.686H3181.03ZM3207.88 108.868H3230.36C3236.59 108.868 3241.43 107.144 3244.88 103.696C3248.46 100.116 3250.25 95.4742 3250.25 89.7721C3250.25 84.2026 3248.39 79.6939 3244.68 76.2461C3241.1 72.7984 3236.33 71.0744 3230.36 71.0744H3207.88V108.868Z" fill="white"/>
<path d="M3402.77 45.017H3411.72V178.686H3384.86V97.3308L3307.89 181.072H3299.13V47.404H3325.99V127.963L3402.77 45.017Z" fill="white"/>
<path d="M3441.71 178.686V47.404H3468.57V97.7286H3526.65V47.404H3553.5V178.686H3526.65V121.996H3468.57V178.686H3441.71Z" fill="white"/>
<path d="M3687.15 45.017H3696.1V178.686H3669.25V97.3308L3592.27 181.072H3583.51V47.404H3610.37V127.963L3687.15 45.017Z" fill="white"/>
<path d="M3845.84 45.017H3854.59V178.686H3827.74V108.669L3794.72 150.042H3785.97L3752.95 108.669V178.686H3726.09V45.017H3734.85L3790.34 116.028L3845.84 45.017Z" fill="white"/>
<path d="M3969.53 178.686L3962.17 161.579H3908.47L3901.11 178.686H3872.26L3930.94 45.017H3939.89L3998.37 178.686H3969.53ZM3952.82 139.5L3935.32 95.1427L3917.81 139.5H3952.82Z" fill="white"/>
<path d="M4030.98 178.686V71.6712H3989.01V47.404H4100.01V71.6712H4057.84V178.686H4030.98Z" fill="white"/>
<path d="M4117.7 178.686V47.404H4206.02V71.6712H4144.55V98.3253H4189.71V121.2H4144.55V154.418H4208.4V178.686H4117.7Z" fill="white"/>
<path d="M4244.85 47.404H4334.96V178.686H4308.11V71.6712H4270.31C4269.78 99.6514 4267.86 121.598 4264.54 137.511C4261.36 153.424 4256.85 164.563 4251.02 170.928C4245.32 177.161 4237.63 180.409 4227.95 180.675C4223.97 180.675 4220.19 180.012 4216.61 178.686V155.811C4217.67 156.076 4219.46 156.209 4221.98 156.209C4229.93 156.209 4235.57 149.644 4238.89 136.516C4242.33 123.388 4244.26 101.773 4244.65 71.6712L4244.85 47.404Z" fill="white"/>
<path d="M4365.17 178.686V47.404H4392.03V92.5569H4415.9C4429.95 92.5569 4441.42 96.6014 4450.31 104.69C4459.33 112.647 4463.83 122.924 4463.83 135.522C4463.83 148.385 4459.33 158.794 4450.31 166.751C4441.42 174.707 4429.95 178.686 4415.9 178.686H4365.17ZM4392.03 155.015H4415.9C4422.26 155.015 4427.23 153.291 4430.81 149.843C4434.53 146.263 4436.38 141.555 4436.38 135.721C4436.38 129.753 4434.53 124.979 4430.81 121.399C4427.23 117.819 4422.26 116.028 4415.9 116.028H4392.03V155.015Z" fill="white"/>
<path d="M4479.22 113.045C4478.95 94.2145 4485.78 78.1027 4499.7 64.7093C4513.63 51.1833 4530.14 44.6192 4549.23 45.017C4561.7 45.017 4572.97 47.9344 4583.05 53.7692C4593.26 59.4713 4601.28 67.4277 4607.12 77.6385L4586.83 91.9601C4577.41 77.2407 4564.88 69.881 4549.23 69.881C4537.03 69.881 4526.89 73.9918 4518.8 82.2135C4510.84 90.4352 4506.86 100.779 4506.86 113.244C4506.86 125.709 4510.84 135.986 4518.8 144.075C4526.89 152.164 4537.03 156.209 4549.23 156.209C4564.88 156.209 4577.41 148.849 4586.83 134.129L4607.12 148.451C4601.41 158.662 4593.46 166.685 4583.25 172.519C4573.04 178.221 4561.63 181.072 4549.03 181.072C4529.81 181.47 4513.23 174.973 4499.31 161.579C4485.51 148.053 4478.82 131.875 4479.22 113.045Z" fill="white"/>
<path d="M4659.57 178.686V71.6712H4617.6V47.404H4728.6V71.6712H4686.43V178.686H4659.57Z" fill="white"/>
<path d="M4847.94 140.097C4847.94 151.368 4843.89 160.651 4835.8 167.944C4827.71 175.105 4817.37 178.686 4804.77 178.686H4746.29V47.404H4792.84C4805.04 47.404 4814.98 50.8518 4822.67 57.7474C4830.5 64.5104 4834.41 73.2625 4834.41 84.0037C4834.41 93.684 4831.16 101.574 4824.66 107.674C4840.18 113.376 4847.94 124.184 4847.94 140.097ZM4790.65 70.4777H4772.15V100.513H4790.65C4796.09 100.513 4800.26 99.1873 4803.18 96.5351C4806.23 93.883 4807.75 90.1699 4807.75 85.3961C4807.75 80.7548 4806.23 77.1081 4803.18 74.4559C4800.26 71.8038 4796.09 70.4777 4790.65 70.4777ZM4821.48 139.102C4821.48 134.063 4819.82 130.085 4816.51 127.167C4813.19 124.117 4808.62 122.593 4802.78 122.593H4772.15V155.612H4802.78C4808.62 155.612 4813.19 154.153 4816.51 151.236C4819.82 148.318 4821.48 144.274 4821.48 139.102Z" fill="white"/>
<path d="M4952.63 178.686L4945.27 161.579H4891.56L4884.2 178.686H4855.36L4914.04 45.017H4922.99L4981.47 178.686H4952.63ZM4935.92 139.5L4918.41 95.1427L4900.91 139.5H4935.92Z" fill="white"/>
<path d="M5087.01 155.811H5135.94V178.686L5039.07 178.884V173.116L5086.02 122.195C5092.65 114.901 5097.36 108.801 5100.14 103.895C5103.06 98.8557 5104.52 93.9493 5104.52 89.1754C5104.52 83.4733 5102.86 78.832 5099.54 75.2516C5096.23 71.6712 5091.79 69.881 5086.22 69.881C5080.65 69.881 5076.14 71.7375 5072.69 75.4505C5069.38 79.1635 5067.72 84.0037 5067.72 89.971C5067.72 91.9601 5068.05 95.1427 5068.71 99.5188H5041.66C5040.73 96.2036 5040.27 92.4906 5040.27 88.3797C5040.27 76.7103 5044.58 66.5658 5053.2 57.9463C5061.95 49.3268 5073.09 45.017 5086.61 45.017C5099.74 45.017 5110.62 49.0616 5119.24 57.1507C5127.86 65.1071 5132.17 75.0527 5132.17 86.9874C5132.17 95.8721 5129.78 104.16 5125 111.851C5119.97 119.808 5112.94 128.494 5103.92 137.909L5087.01 155.811Z" fill="white"/>
<path d="M5203.17 155.811H5252.11V178.686L5155.24 178.884V173.116L5202.18 122.195C5208.81 114.901 5213.52 108.801 5216.3 103.895C5219.22 98.8557 5220.68 93.9493 5220.68 89.1754C5220.68 83.4733 5219.02 78.832 5215.7 75.2516C5212.39 71.6712 5207.95 69.881 5202.38 69.881C5196.81 69.881 5192.3 71.7375 5188.85 75.4505C5185.54 79.1635 5183.88 84.0037 5183.88 89.971C5183.88 91.9601 5184.21 95.1427 5184.87 99.5188H5157.82C5156.89 96.2036 5156.43 92.4906 5156.43 88.3797C5156.43 76.7103 5160.74 66.5658 5169.36 57.9463C5178.11 49.3268 5189.25 45.017 5202.78 45.017C5215.9 45.017 5226.78 49.0616 5235.4 57.1507C5244.02 65.1071 5248.33 75.0527 5248.33 86.9874C5248.33 95.8721 5245.94 104.16 5241.17 111.851C5236.13 119.808 5229.1 128.494 5220.08 137.909L5203.17 155.811Z" fill="white"/>
<path d="M5269.41 126.173V103.696H5355.34V126.173H5269.41Z" fill="white"/>
<path d="M5417.24 155.811H5466.17V178.686L5369.3 178.884V173.116L5416.24 122.195C5422.87 114.901 5427.58 108.801 5430.36 103.895C5433.28 98.8557 5434.74 93.9493 5434.74 89.1754C5434.74 83.4733 5433.08 78.832 5429.77 75.2516C5426.45 71.6712 5422.01 69.881 5416.44 69.881C5410.87 69.881 5406.36 71.7375 5402.91 75.4505C5399.6 79.1635 5397.94 84.0037 5397.94 89.971C5397.94 91.9601 5398.27 95.1427 5398.94 99.5188H5371.88C5370.96 96.2036 5370.49 92.4906 5370.49 88.3797C5370.49 76.7103 5374.8 66.5658 5383.42 57.9463C5392.17 49.3268 5403.31 45.017 5416.84 45.017C5429.97 45.017 5440.84 49.0616 5449.46 57.1507C5458.08 65.1071 5462.39 75.0527 5462.39 86.9874C5462.39 95.8721 5460 104.16 5455.23 111.851C5450.19 119.808 5443.16 128.494 5434.14 137.909L5417.24 155.811Z" fill="white"/>
<path d="M5584.12 143.677C5584.12 154.949 5579.54 164.032 5570.4 170.928C5561.25 177.691 5549.44 181.072 5534.99 181.072C5520.4 181.072 5508.53 177.691 5499.38 170.928C5490.23 164.032 5485.66 154.949 5485.66 143.677C5485.66 128.56 5494.28 117.553 5511.52 110.658C5498.26 102.967 5491.63 92.6895 5491.63 79.8266C5491.63 68.9527 5495.67 60.4658 5503.76 54.3659C5511.98 48.1333 5522.39 45.017 5534.99 45.017C5547.45 45.017 5557.8 48.1333 5566.02 54.3659C5574.24 60.5985 5578.35 69.0853 5578.35 79.8266C5578.35 92.8221 5571.79 103.099 5558.66 110.658C5575.63 117.686 5584.12 128.692 5584.12 143.677ZM5516.69 81.02C5516.69 84.8656 5518.08 88.1145 5520.87 90.7667C5523.65 93.4188 5528.36 96.2699 5534.99 99.3199C5541.62 96.2699 5546.33 93.4188 5549.11 90.7667C5551.9 88.1145 5553.29 84.7993 5553.29 80.8211C5553.29 76.5777 5551.56 73.1962 5548.12 70.6766C5544.67 68.0245 5540.29 66.6984 5534.99 66.6984C5529.55 66.6984 5525.11 68.0245 5521.66 70.6766C5518.35 73.1962 5516.69 76.644 5516.69 81.02ZM5557.47 142.683C5557.47 137.776 5555.68 133.798 5552.1 130.748C5548.65 127.698 5542.95 124.781 5534.99 121.996C5527.03 124.913 5521.26 127.963 5517.68 131.146C5514.24 134.196 5512.51 138.041 5512.51 142.683C5512.51 147.722 5514.43 151.766 5518.28 154.816C5522.26 157.734 5527.83 159.192 5534.99 159.192C5542.15 159.192 5547.65 157.734 5551.5 154.816C5555.48 151.766 5557.47 147.722 5557.47 142.683Z" fill="white"/>
<path d="M5784.06 45.017H5792.81V178.686H5765.96V108.669L5732.94 150.042H5724.19L5691.17 108.669V178.686H5664.31V45.017H5673.07L5728.56 116.028L5784.06 45.017Z" fill="white"/>
<path d="M5907.75 178.686L5900.39 161.579H5846.69L5839.33 178.686H5810.48L5869.16 45.017H5878.11L5936.59 178.686H5907.75ZM5891.04 139.5L5873.54 95.1427L5856.04 139.5H5891.04Z" fill="white"/>
<path d="M6003.65 47.404H6050V178.686H6023.15V135.124H6006.04L5975.41 178.686H5946.57L5980.18 130.549C5971.83 126.969 5965.2 121.731 5960.29 114.835C5955.52 107.807 5953.13 99.9166 5953.13 91.1645C5953.13 78.169 5957.77 67.6266 5967.05 59.5376C5976.47 51.4485 5988.67 47.404 6003.65 47.404ZM6023.15 111.453V71.0744H6002.86C5996.23 71.0744 5990.86 72.931 5986.75 76.644C5982.64 80.357 5980.58 85.2635 5980.58 91.3634C5980.58 97.4634 5982.64 102.37 5986.75 106.083C5990.86 109.663 5996.23 111.453 6002.86 111.453H6023.15Z" fill="white"/>
</svg>
