<svg width="6300" height="251" viewBox="0 0 6300 251" fill="none" xmlns="http://www.w3.org/2000/svg">
<path d="M366.4 52.6V187H339.4V116.6L306.2 158.2H297.4L264.2 116.6V187H237.2V52.6H246L301.8 124L357.6 52.6H366.4ZM459.17 189.4C446.37 189.4 434.637 186.4 423.97 180.4C413.304 174.4 404.837 166.2 398.57 155.8C392.304 145.267 389.17 133.667 389.17 121C389.17 108.333 392.304 96.8 398.57 86.4C404.837 75.8667 413.304 67.6 423.97 61.6C434.637 55.6 446.37 52.6 459.17 52.6C471.97 52.6 483.704 55.6 494.37 61.6C505.17 67.6 513.704 75.8667 519.97 86.4C526.37 96.8 529.57 108.333 529.57 121C529.57 133.667 526.37 145.267 519.97 155.8C513.704 166.2 505.17 174.4 494.37 180.4C483.704 186.4 471.97 189.4 459.17 189.4ZM459.37 164.4C467.37 164.4 474.57 162.6 480.97 159C487.504 155.267 492.57 150.133 496.17 143.6C499.904 136.933 501.77 129.4 501.77 121C501.77 112.733 499.904 105.333 496.17 98.8C492.57 92.1333 487.504 86.9333 480.97 83.2C474.57 79.4667 467.37 77.6 459.37 77.6C451.237 77.6 443.97 79.4667 437.57 83.2C431.17 86.8 426.104 91.9333 422.37 98.6C418.77 105.133 416.97 112.6 416.97 121C416.97 129.4 418.77 136.933 422.37 143.6C426.104 150.133 431.17 155.267 437.57 159C443.97 162.6 451.237 164.4 459.37 164.4ZM615.034 189.4C602.101 189.4 590.234 186.4 579.434 180.4C568.768 174.4 560.301 166.2 554.034 155.8C547.901 145.267 544.834 133.667 544.834 121C544.834 108.333 547.968 96.8 554.234 86.4C560.501 75.8667 568.968 67.6 579.634 61.6C590.434 55.6 602.301 52.6 615.234 52.6C627.768 52.6 639.101 55.5333 649.234 61.4C659.501 67.1333 667.568 75.1333 673.434 85.4L653.034 99.8C643.701 85 631.101 77.6 615.234 77.6C607.101 77.6 599.768 79.4667 593.234 83.2C586.834 86.9333 581.768 92.1333 578.034 98.8C574.434 105.333 572.634 112.8 572.634 121.2C572.634 129.6 574.434 137.067 578.034 143.6C581.768 150.133 586.834 155.267 593.234 159C599.768 162.6 607.101 164.4 615.234 164.4C631.101 164.4 643.701 157 653.034 142.2L673.434 156.6C667.701 166.867 659.701 174.933 649.434 180.8C639.168 186.533 627.701 189.4 615.034 189.4ZM779.98 187L723.38 118.2V187H696.38V55H723.38V116.2L773.78 55H805.98L755.38 117.2L812.58 187H779.98ZM882.803 189.4C870.003 189.4 858.27 186.4 847.603 180.4C836.936 174.4 828.47 166.2 822.203 155.8C815.936 145.267 812.803 133.667 812.803 121C812.803 108.333 815.936 96.8 822.203 86.4C828.47 75.8667 836.936 67.6 847.603 61.6C858.27 55.6 870.003 52.6 882.803 52.6C895.603 52.6 907.336 55.6 918.003 61.6C928.803 67.6 937.336 75.8667 943.603 86.4C950.003 96.8 953.203 108.333 953.203 121C953.203 133.667 950.003 145.267 943.603 155.8C937.336 166.2 928.803 174.4 918.003 180.4C907.336 186.4 895.603 189.4 882.803 189.4ZM883.003 164.4C891.003 164.4 898.203 162.6 904.603 159C911.136 155.267 916.203 150.133 919.803 143.6C923.536 136.933 925.403 129.4 925.403 121C925.403 112.733 923.536 105.333 919.803 98.8C916.203 92.1333 911.136 86.9333 904.603 83.2C898.203 79.4667 891.003 77.6 883.003 77.6C874.87 77.6 867.603 79.4667 861.203 83.2C854.803 86.8 849.736 91.9333 846.003 98.6C842.403 105.133 840.603 112.6 840.603 121C840.603 129.4 842.403 136.933 846.003 143.6C849.736 150.133 854.803 155.267 861.203 159C867.603 162.6 874.87 164.4 883.003 164.4ZM1054.87 115.6C1062.2 118.267 1067.93 122.4 1072.07 128C1076.2 133.467 1078.27 140.2 1078.27 148.2C1078.27 155.667 1076.4 162.4 1072.67 168.4C1069.07 174.267 1063.93 178.867 1057.27 182.2C1050.73 185.4 1043.27 187 1034.87 187H976.067V55H1022.87C1030.87 55 1038.07 56.6 1044.47 59.8C1050.87 62.8667 1055.8 67.2 1059.27 72.8C1062.87 78.2667 1064.67 84.6 1064.67 91.8C1064.67 101.4 1061.4 109.333 1054.87 115.6ZM1002.07 78.2V108.4H1020.67C1026.13 108.4 1030.33 107.067 1033.27 104.4C1036.33 101.6 1037.87 97.8667 1037.87 93.2C1037.87 88.5333 1036.33 84.8667 1033.27 82.2C1030.33 79.5333 1026.13 78.2 1020.67 78.2H1002.07ZM1032.87 163.8C1038.73 163.8 1043.33 162.333 1046.67 159.4C1050 156.467 1051.67 152.4 1051.67 147.2C1051.67 142.133 1050 138.133 1046.67 135.2C1043.33 132.133 1038.73 130.6 1032.87 130.6H1002.07V163.8H1032.87ZM1162.89 189.4C1149.95 189.4 1138.09 186.4 1127.29 180.4C1116.62 174.4 1108.15 166.2 1101.89 155.8C1095.75 145.267 1092.69 133.667 1092.69 121C1092.69 108.333 1095.82 96.8 1102.09 86.4C1108.35 75.8667 1116.82 67.6 1127.49 61.6C1138.29 55.6 1150.15 52.6 1163.09 52.6C1175.62 52.6 1186.95 55.5333 1197.09 61.4C1207.35 67.1333 1215.42 75.1333 1221.29 85.4L1200.89 99.8C1191.55 85 1178.95 77.6 1163.09 77.6C1154.95 77.6 1147.62 79.4667 1141.09 83.2C1134.69 86.9333 1129.62 92.1333 1125.89 98.8C1122.29 105.333 1120.49 112.8 1120.49 121.2C1120.49 129.6 1122.29 137.067 1125.89 143.6C1129.62 150.133 1134.69 155.267 1141.09 159C1147.62 162.6 1154.95 164.4 1163.09 164.4C1178.95 164.4 1191.55 157 1200.89 142.2L1221.29 156.6C1215.55 166.867 1207.55 174.933 1197.29 180.8C1187.02 186.533 1175.55 189.4 1162.89 189.4ZM1327.83 187L1271.23 118.2V187H1244.23V55H1271.23V116.2L1321.63 55H1353.83L1303.23 117.2L1360.43 187H1327.83ZM1456.02 169.8H1402.02L1394.62 187H1365.62L1424.62 52.6H1433.62L1492.42 187H1463.42L1456.02 169.8ZM1429.02 103L1411.42 147.6H1446.62L1429.02 103ZM1606.44 55V187H1579.44V143.2H1562.24L1531.44 187H1502.44L1536.24 138.6C1527.84 135 1521.18 129.733 1516.24 122.8C1511.44 115.867 1509.04 107.933 1509.04 99C1509.04 90.3333 1511.18 82.6667 1515.44 76C1519.71 69.3333 1525.64 64.2 1533.24 60.6C1540.98 56.8667 1549.84 55 1559.84 55H1606.44ZM1579.44 78.8H1559.04C1552.38 78.8 1546.98 80.6667 1542.84 84.4C1538.71 88.1333 1536.64 93.0667 1536.64 99.2C1536.64 105.333 1538.71 110.267 1542.84 114C1546.98 117.6 1552.38 119.4 1559.04 119.4H1579.44V78.8ZM1692.86 55H1719.86V105.6H1778.26V55H1805.26V187H1778.26V130H1719.86V187H1692.86V55ZM1835.44 55H1924.24V79.4H1862.44V106.2H1907.84V129.2H1862.44V162.6H1926.64V187H1835.44V55ZM2074.29 162.6V215.2H2047.29V187H1965.09V215.2H1938.09V162.6H1948.69C1954.42 157.933 1958.56 148.667 1961.09 134.8C1963.62 120.8 1964.89 101.467 1964.89 76.8V55H2056.69V162.6H2074.29ZM1990.29 79.4C1990.02 99.8 1988.89 116.867 1986.89 130.6C1985.02 144.2 1982.09 154.867 1978.09 162.6H2029.69V79.4H1990.29ZM2094.23 55H2183.03V79.4H2121.23V106.2H2166.63V129.2H2121.23V162.6H2185.43V187H2094.23V55ZM2312.68 55V187H2285.68V79.4H2247.68C2247.28 107.533 2245.41 129.6 2242.08 145.6C2238.88 161.467 2234.28 172.667 2228.28 179.2C2222.28 185.733 2214.55 189 2205.08 189C2201.21 189 2197.41 188.333 2193.68 187V164C2194.48 164.267 2196.28 164.4 2199.08 164.4C2204.41 164.4 2208.68 161.4 2211.88 155.4C2215.21 149.4 2217.61 140.267 2219.08 128C2220.68 115.6 2221.61 99.4 2221.88 79.4L2222.08 55H2312.68ZM2439.06 55V187H2412.06V143.2H2394.86L2364.06 187H2335.06L2368.86 138.6C2360.46 135 2353.79 129.733 2348.86 122.8C2344.06 115.867 2341.66 107.933 2341.66 99C2341.66 90.3333 2343.79 82.6667 2348.06 76C2352.33 69.3333 2358.26 64.2 2365.86 60.6C2373.59 56.8667 2382.46 55 2392.46 55H2439.06ZM2412.06 78.8H2391.66C2384.99 78.8 2379.59 80.6667 2375.46 84.4C2371.33 88.1333 2369.26 93.0667 2369.26 99.2C2369.26 105.333 2371.33 110.267 2375.46 114C2379.59 117.6 2384.99 119.4 2391.66 119.4H2412.06V78.8ZM2525.48 55H2635.88V187H2608.88V79.4H2552.48V187H2525.48V55ZM2666.11 55H2715.71C2724.91 55 2733.11 56.8 2740.31 60.4C2747.51 63.8667 2753.11 68.8667 2757.11 75.4C2761.24 81.8 2763.31 89.2 2763.31 97.6C2763.31 106 2761.24 113.467 2757.11 120C2753.11 126.4 2747.51 131.4 2740.31 135C2733.11 138.6 2724.91 140.4 2715.71 140.4H2693.11V187H2666.11V55ZM2715.71 116.8C2721.97 116.8 2726.84 115.067 2730.31 111.6C2733.91 108 2735.71 103.333 2735.71 97.6C2735.71 92 2733.91 87.4667 2730.31 84C2726.71 80.5333 2721.84 78.8 2715.71 78.8H2693.11V116.8H2715.71ZM2784.86 55H2873.66V79.4H2811.86V106.2H2857.26V129.2H2811.86V162.6H2876.06V187H2784.86V55ZM3023.7 162.6V215.2H2996.7V187H2914.5V215.2H2887.5V162.6H2898.1C2903.84 157.933 2907.97 148.667 2910.5 134.8C2913.04 120.8 2914.3 101.467 2914.3 76.8V55H3006.1V162.6H3023.7ZM2939.7 79.4C2939.44 99.8 2938.3 116.867 2936.3 130.6C2934.44 144.2 2931.5 154.867 2927.5 162.6H2979.1V79.4H2939.7ZM3043.65 55H3154.05V187H3127.05V79.4H3070.65V187H3043.65V55ZM3184.27 55H3233.87C3243.07 55 3251.27 56.8 3258.47 60.4C3265.67 63.8667 3271.27 68.8667 3275.27 75.4C3279.4 81.8 3281.47 89.2 3281.47 97.6C3281.47 106 3279.4 113.467 3275.27 120C3271.27 126.4 3265.67 131.4 3258.47 135C3251.27 138.6 3243.07 140.4 3233.87 140.4H3211.27V187H3184.27V55ZM3233.87 116.8C3240.14 116.8 3245 115.067 3248.47 111.6C3252.07 108 3253.87 103.333 3253.87 97.6C3253.87 92 3252.07 87.4667 3248.47 84C3244.87 80.5333 3240 78.8 3233.87 78.8H3211.27V116.8H3233.87ZM3416.22 52.6V187H3389.22V105.2L3311.82 189.4H3303.02V55H3330.02V136L3407.22 52.6H3416.22ZM3446.38 55H3473.38V105.6H3531.78V55H3558.78V187H3531.78V130H3473.38V187H3446.38V55ZM3702.16 52.6V187H3675.16V105.2L3597.76 189.4H3588.96V55H3615.96V136L3693.16 52.6H3702.16ZM3861.52 52.6V187H3834.52V116.6L3801.32 158.2H3792.52L3759.32 116.6V187H3732.32V52.6H3741.12L3796.92 124L3852.72 52.6H3861.52ZM3969.69 169.8H3915.69L3908.29 187H3879.29L3938.29 52.6H3947.29L4006.09 187H3977.09L3969.69 169.8ZM3942.69 103L3925.09 147.6H3960.29L3942.69 103ZM4038.88 79.4H3996.68V55H4108.28V79.4H4065.88V187H4038.88V79.4ZM4126.07 55H4214.87V79.4H4153.07V106.2H4198.47V129.2H4153.07V162.6H4217.27V187H4126.07V55ZM4344.52 55V187H4317.52V79.4H4279.52C4279.12 107.533 4277.25 129.6 4273.92 145.6C4270.72 161.467 4266.12 172.667 4260.12 179.2C4254.12 185.733 4246.38 189 4236.92 189C4233.05 189 4229.25 188.333 4225.52 187V164C4226.32 164.267 4228.12 164.4 4230.92 164.4C4236.25 164.4 4240.52 161.4 4243.72 155.4C4247.05 149.4 4249.45 140.267 4250.92 128C4252.52 115.6 4253.45 99.4 4253.72 79.4L4253.92 55H4344.52ZM4374.9 55H4401.9V100.4H4425.9C4435.23 100.4 4443.56 102.267 4450.9 106C4458.23 109.6 4463.9 114.667 4467.9 121.2C4472.03 127.733 4474.1 135.2 4474.1 143.6C4474.1 152.267 4472.03 159.867 4467.9 166.4C4463.9 172.933 4458.23 178 4450.9 181.6C4443.56 185.2 4435.23 187 4425.9 187H4374.9V55ZM4425.9 163.2C4432.3 163.2 4437.3 161.467 4440.9 158C4444.63 154.4 4446.5 149.667 4446.5 143.8C4446.5 137.933 4444.63 133.2 4440.9 129.6C4437.3 125.867 4432.3 124 4425.9 124H4401.9V163.2H4425.9ZM4559.76 189.4C4546.83 189.4 4534.96 186.4 4524.16 180.4C4513.49 174.4 4505.03 166.2 4498.76 155.8C4492.63 145.267 4489.56 133.667 4489.56 121C4489.56 108.333 4492.69 96.8 4498.96 86.4C4505.23 75.8667 4513.69 67.6 4524.36 61.6C4535.16 55.6 4547.03 52.6 4559.96 52.6C4572.49 52.6 4583.83 55.5333 4593.96 61.4C4604.23 67.1333 4612.29 75.1333 4618.16 85.4L4597.76 99.8C4588.43 85 4575.83 77.6 4559.96 77.6C4551.83 77.6 4544.49 79.4667 4537.96 83.2C4531.56 86.9333 4526.49 92.1333 4522.76 98.8C4519.16 105.333 4517.36 112.8 4517.36 121.2C4517.36 129.6 4519.16 137.067 4522.76 143.6C4526.49 150.133 4531.56 155.267 4537.96 159C4544.49 162.6 4551.83 164.4 4559.96 164.4C4575.83 164.4 4588.43 157 4597.76 142.2L4618.16 156.6C4612.43 166.867 4604.43 174.933 4594.16 180.8C4583.89 186.533 4572.43 189.4 4559.76 189.4ZM4670.91 79.4H4628.71V55H4740.31V79.4H4697.91V187H4670.91V79.4ZM4836.9 115.6C4844.23 118.267 4849.97 122.4 4854.1 128C4858.23 133.467 4860.3 140.2 4860.3 148.2C4860.3 155.667 4858.43 162.4 4854.7 168.4C4851.1 174.267 4845.97 178.867 4839.3 182.2C4832.77 185.4 4825.3 187 4816.9 187H4758.1V55H4804.9C4812.9 55 4820.1 56.6 4826.5 59.8C4832.9 62.8667 4837.83 67.2 4841.3 72.8C4844.9 78.2667 4846.7 84.6 4846.7 91.8C4846.7 101.4 4843.43 109.333 4836.9 115.6ZM4784.1 78.2V108.4H4802.7C4808.17 108.4 4812.37 107.067 4815.3 104.4C4818.37 101.6 4819.9 97.8667 4819.9 93.2C4819.9 88.5333 4818.37 84.8667 4815.3 82.2C4812.37 79.5333 4808.17 78.2 4802.7 78.2H4784.1ZM4814.9 163.8C4820.77 163.8 4825.37 162.333 4828.7 159.4C4832.03 156.467 4833.7 152.4 4833.7 147.2C4833.7 142.133 4832.03 138.133 4828.7 135.2C4825.37 132.133 4820.77 130.6 4814.9 130.6H4784.1V163.8H4814.9ZM4958.16 169.8H4904.16L4896.76 187H4867.76L4926.76 52.6H4935.76L4994.56 187H4965.56L4958.16 169.8ZM4931.16 103L4913.56 147.6H4948.76L4931.16 103ZM5149.88 164V187L5052.48 187.2V181.4L5099.68 130.2C5106.22 123.133 5110.95 117.067 5113.88 112C5116.82 106.933 5118.28 101.933 5118.28 97C5118.28 91.2667 5116.62 86.6 5113.28 83C5109.95 79.4 5105.48 77.6 5099.88 77.6C5094.28 77.6 5089.75 79.4667 5086.28 83.2C5082.95 86.9333 5081.28 91.8 5081.28 97.8C5081.28 100.2 5081.62 103.4 5082.28 107.4H5055.08C5054.15 103.8 5053.68 100.067 5053.68 96.2C5053.68 88.7333 5055.55 81.6667 5059.28 75C5063.15 68.3333 5068.62 62.9333 5075.68 58.8C5082.75 54.6667 5090.95 52.6 5100.28 52.6C5108.95 52.6 5116.75 54.4667 5123.68 58.2C5130.75 61.8 5136.22 66.8 5140.08 73.2C5144.08 79.6 5146.08 86.8 5146.08 94.8C5146.08 103.733 5143.68 112.067 5138.88 119.8C5134.08 127.4 5127.02 136.133 5117.68 146L5100.68 164H5149.88ZM5229.28 103.4C5238.21 105.8 5245.75 110.533 5251.88 117.6C5258.01 124.667 5261.08 133.4 5261.08 143.8C5261.08 152.6 5258.81 160.467 5254.28 167.4C5249.88 174.333 5243.88 179.733 5236.28 183.6C5228.68 187.467 5220.35 189.4 5211.28 189.4C5200.35 189.4 5190.75 186.667 5182.48 181.2C5174.21 175.733 5167.81 168.467 5163.28 159.4L5182.08 146.2C5186.08 152.2 5190.28 156.733 5194.68 159.8C5199.08 162.867 5204.35 164.4 5210.48 164.4C5217.15 164.4 5222.61 162.6 5226.88 159C5231.28 155.267 5233.48 150.267 5233.48 144C5233.48 137.867 5231.15 133.2 5226.48 130C5221.95 126.667 5215.28 125 5206.48 125H5189.88V118L5217.48 79.4H5173.48V55H5258.48V62.2L5229.28 103.4ZM5277.05 111.6H5363.45V134.2H5277.05V111.6ZM5474.88 164V187L5377.48 187.2V181.4L5424.68 130.2C5431.22 123.133 5435.95 117.067 5438.88 112C5441.82 106.933 5443.28 101.933 5443.28 97C5443.28 91.2667 5441.62 86.6 5438.28 83C5434.95 79.4 5430.48 77.6 5424.88 77.6C5419.28 77.6 5414.75 79.4667 5411.28 83.2C5407.95 86.9333 5406.28 91.8 5406.28 97.8C5406.28 100.2 5406.62 103.4 5407.28 107.4H5380.08C5379.15 103.8 5378.68 100.067 5378.68 96.2C5378.68 88.7333 5380.55 81.6667 5384.28 75C5388.15 68.3333 5393.62 62.9333 5400.68 58.8C5407.75 54.6667 5415.95 52.6 5425.28 52.6C5433.95 52.6 5441.75 54.4667 5448.68 58.2C5455.75 61.8 5461.22 66.8 5465.08 73.2C5469.08 79.6 5471.08 86.8 5471.08 94.8C5471.08 103.733 5468.68 112.067 5463.88 119.8C5459.08 127.4 5452.02 136.133 5442.68 146L5425.68 164H5474.88ZM5593.48 151.8C5593.48 159.4 5591.35 166.067 5587.08 171.8C5582.95 177.4 5577.15 181.733 5569.68 184.8C5562.21 187.867 5553.68 189.4 5544.08 189.4C5534.48 189.4 5525.88 187.867 5518.28 184.8C5510.81 181.733 5504.95 177.4 5500.68 171.8C5496.55 166.067 5494.48 159.4 5494.48 151.8C5494.48 136.6 5503.15 125.533 5520.48 118.6C5507.15 110.867 5500.48 100.533 5500.48 87.6C5500.48 76.6667 5504.55 68.1333 5512.68 62C5520.95 55.7333 5531.41 52.6 5544.08 52.6C5556.75 52.6 5567.15 55.7333 5575.28 62C5583.55 68.1333 5587.68 76.6667 5587.68 87.6C5587.68 100.667 5581.08 111 5567.88 118.6C5584.95 125.667 5593.48 136.733 5593.48 151.8ZM5544.08 74.4C5538.75 74.4 5534.35 75.6667 5530.88 78.2C5527.41 80.7333 5525.68 84.2667 5525.68 88.8C5525.68 92.8 5527.15 96.1333 5530.08 98.8C5533.15 101.467 5537.81 104.267 5544.08 107.2C5550.35 104.267 5554.95 101.467 5557.88 98.8C5560.95 96.1333 5562.48 92.7333 5562.48 88.6C5562.48 84.2 5560.75 80.7333 5557.28 78.2C5553.81 75.6667 5549.41 74.4 5544.08 74.4ZM5544.08 167.4C5551.41 167.4 5557.01 165.867 5560.88 162.8C5564.75 159.733 5566.68 155.733 5566.68 150.8C5566.68 145.733 5564.81 141.667 5561.08 138.6C5557.35 135.533 5551.68 132.667 5544.08 130C5536.48 132.8 5530.81 135.733 5527.08 138.8C5523.35 141.867 5521.48 145.867 5521.48 150.8C5521.48 155.733 5523.41 159.733 5527.28 162.8C5531.15 165.867 5536.75 167.4 5544.08 167.4ZM5803.31 52.6V187H5776.31V116.6L5743.11 158.2H5734.31L5701.11 116.6V187H5674.11V52.6H5682.91L5738.71 124L5794.51 52.6H5803.31ZM5911.48 169.8H5857.48L5850.08 187H5821.08L5880.08 52.6H5889.08L5947.88 187H5918.88L5911.48 169.8ZM5884.48 103L5866.88 147.6H5902.08L5884.48 103ZM6061.91 55V187H6034.91V143.2H6017.71L5986.91 187H5957.91L5991.71 138.6C5983.31 135 5976.64 129.733 5971.71 122.8C5966.91 115.867 5964.51 107.933 5964.51 99C5964.51 90.3333 5966.64 82.6667 5970.91 76C5975.18 69.3333 5981.11 64.2 5988.71 60.6C5996.44 56.8667 6005.31 55 6015.31 55H6061.91ZM6034.91 78.8H6014.51C6007.84 78.8 6002.44 80.6667 5998.31 84.4C5994.18 88.1333 5992.11 93.0667 5992.11 99.2C5992.11 105.333 5994.18 110.267 5998.31 114C6002.44 117.6 6007.84 119.4 6014.51 119.4H6034.91V78.8Z" fill="white"/>
</svg>
