<svg width="158" height="158" viewBox="0 0 158 158" fill="none" xmlns="http://www.w3.org/2000/svg">
<mask id="path-1-inside-1_6992_10353" fill="white">
<path fill-rule="evenodd" clip-rule="evenodd" d="M158 32.6955L125.308 0L79 46.3122L32.6922 0L0 32.6955L46.3105 79.0048L0 125.32L32.6922 158L79 111.693L125.308 158L158 125.32L111.689 79.0048L158 32.6955Z"/>
</mask>
<path d="M125.308 0L126.337 -1.02888L125.308 -2.05796L124.279 -1.02888L125.308 0ZM158 32.6955L159.029 33.7244L160.058 32.6955L159.029 31.6666L158 32.6955ZM79 46.3122L77.971 47.3411L79 48.3702L80.029 47.3411L79 46.3122ZM32.6922 0L33.7212 -1.02888L32.6922 -2.05796L31.6633 -1.02888L32.6922 0ZM0 32.6955L-1.02898 31.6666L-2.05782 32.6955L-1.02892 33.7244L0 32.6955ZM46.3105 79.0048L47.3395 80.0337L48.3684 79.0048L47.3394 77.9759L46.3105 79.0048ZM0 125.32L-1.02898 124.291L-2.058 125.32L-1.02874 126.349L0 125.32ZM32.6922 158L31.6635 159.029L32.6924 160.058L33.7212 159.029L32.6922 158ZM79 111.693L80.0289 110.665L79 109.636L77.9711 110.665L79 111.693ZM125.308 158L124.279 159.029L125.307 160.058L126.336 159.029L125.308 158ZM158 125.32L159.029 126.349L160.058 125.32L159.029 124.291L158 125.32ZM111.689 79.0048L110.661 77.9759L109.632 79.0048L110.66 80.0337L111.689 79.0048ZM124.279 1.02888L156.971 33.7244L159.029 31.6666L126.337 -1.02888L124.279 1.02888ZM80.029 47.3411L126.337 1.02888L124.279 -1.02888L77.971 45.2833L80.029 47.3411ZM31.6633 1.02888L77.971 47.3411L80.029 45.2833L33.7212 -1.02888L31.6633 1.02888ZM1.02898 33.7244L33.7212 1.02888L31.6633 -1.02888L-1.02898 31.6666L1.02898 33.7244ZM47.3394 77.9759L1.02892 31.6665L-1.02892 33.7244L45.2816 80.0338L47.3394 77.9759ZM1.02898 126.349L47.3395 80.0337L45.2815 77.976L-1.02898 124.291L1.02898 126.349ZM33.721 156.971L1.02874 124.291L-1.02874 126.349L31.6635 159.029L33.721 156.971ZM77.9711 110.665L31.6633 156.971L33.7212 159.029L80.0289 112.722L77.9711 110.665ZM126.337 156.971L80.0289 110.665L77.9711 112.722L124.279 159.029L126.337 156.971ZM156.971 124.291L124.279 156.971L126.336 159.029L159.029 126.349L156.971 124.291ZM110.66 80.0337L156.971 126.349L159.029 124.291L112.718 77.976L110.66 80.0337ZM156.971 31.6665L110.661 77.9759L112.718 80.0338L159.029 33.7244L156.971 31.6665Z" fill="black" mask="url(#path-1-inside-1_6992_10353)"/>
</svg>
