<svg width="85" height="158" viewBox="0 0 85 158" fill="none" xmlns="http://www.w3.org/2000/svg">
<path d="M13.3564 140.423L16.8405 143.906L3.48471 157.262L0 153.779L13.3564 140.423Z" fill="#83A1FE"/>
<path d="M0 143.906L3.48471 140.423L16.8405 153.779L13.3564 157.262L0 143.906Z" fill="#83A1FE"/>
<path d="M13.3564 105.317L16.8405 108.8L3.48471 122.156L0 118.674L13.3564 105.317Z" fill="#83A1FE"/>
<path d="M0 108.8L3.48471 105.317L16.8405 118.674L13.3564 122.156L0 108.8Z" fill="#83A1FE"/>
<path d="M13.3564 70.2116L16.8405 73.6961L3.48471 87.0506L0 83.5678L13.3564 70.2116Z" fill="#83A1FE"/>
<path d="M0 73.6961L3.48471 70.2116L16.8405 83.5678L13.3564 87.0506L0 73.6961Z" fill="#83A1FE"/>
<path d="M13.3564 35.1057L16.8405 38.5904L3.48471 51.9448L0 48.4621L13.3564 35.1057Z" fill="#83A1FE"/>
<path d="M0 38.5904L3.48471 35.1057L16.8405 48.4621L13.3564 51.9448L0 38.5904Z" fill="#83A1FE"/>
<path d="M13.3564 7.24792e-05L16.8405 3.48463L3.48471 16.8391L0 13.3562L13.3564 7.24792e-05Z" fill="#83A1FE"/>
<path d="M0 3.48463L3.48471 7.24792e-05L16.8405 13.3562L13.3564 16.8391L0 3.48463Z" fill="#83A1FE"/>
<path d="M48.6671 140.423L52.1512 143.906L38.7954 157.262L35.312 153.779L48.6671 140.423Z" fill="#83A1FE"/>
<path d="M35.312 143.906L38.7954 140.423L52.1512 153.779L48.6671 157.262L35.312 143.906Z" fill="#83A1FE"/>
<path d="M48.6671 105.317L52.1512 108.8L38.7954 122.156L35.312 118.674L48.6671 105.317Z" fill="#83A1FE"/>
<path d="M35.312 108.8L38.7954 105.317L52.1512 118.674L48.6671 122.156L35.312 108.8Z" fill="#83A1FE"/>
<path d="M48.6671 70.2116L52.1512 73.6961L38.7954 87.0506L35.312 83.5678L48.6671 70.2116Z" fill="#83A1FE"/>
<path d="M35.312 73.6961L38.7954 70.2116L52.1512 83.5678L48.6671 87.0506L35.312 73.6961Z" fill="#83A1FE"/>
<path d="M48.6671 35.1057L52.1512 38.5904L38.7954 51.9448L35.312 48.4621L48.6671 35.1057Z" fill="#83A1FE"/>
<path d="M35.312 38.5904L38.7954 35.1057L52.1512 48.4621L48.6671 51.9448L35.312 38.5904Z" fill="#83A1FE"/>
<path d="M48.6671 7.24792e-05L52.1512 3.48463L38.7954 16.8391L35.312 13.3562L48.6671 7.24792e-05Z" fill="#83A1FE"/>
<path d="M35.312 3.48463L38.7954 7.24792e-05L52.1512 13.3562L48.6671 16.8391L35.312 3.48463Z" fill="#83A1FE"/>
<path d="M81.5157 140.423L85.0003 143.906L71.6442 157.262L68.1597 153.779L81.5157 140.423Z" fill="#83A1FE"/>
<path d="M68.1597 143.906L71.6442 140.423L85.0003 153.779L81.5157 157.262L68.1597 143.906Z" fill="#83A1FE"/>
<path d="M81.5157 105.317L85.0003 108.8L71.6442 122.156L68.1597 118.674L81.5157 105.317Z" fill="#83A1FE"/>
<path d="M68.1597 108.8L71.6442 105.317L85.0003 118.674L81.5157 122.156L68.1597 108.8Z" fill="#83A1FE"/>
<path d="M81.5157 70.2116L85.0003 73.6961L71.6442 87.0506L68.1597 83.5678L81.5157 70.2116Z" fill="#83A1FE"/>
<path d="M68.1597 73.6961L71.6442 70.2116L85.0003 83.5678L81.5157 87.0506L68.1597 73.6961Z" fill="#83A1FE"/>
<path d="M81.5157 35.1057L85.0003 38.5904L71.6442 51.9448L68.1597 48.4621L81.5157 35.1057Z" fill="#83A1FE"/>
<path d="M68.1597 38.5904L71.6442 35.1057L85.0003 48.4621L81.5157 51.9448L68.1597 38.5904Z" fill="#83A1FE"/>
<path d="M81.5157 7.24792e-05L85.0003 3.48463L71.6442 16.8391L68.1597 13.3562L81.5157 7.24792e-05Z" fill="#83A1FE"/>
<path d="M68.1597 3.48463L71.6442 7.24792e-05L85.0003 13.3562L81.5157 16.8391L68.1597 3.48463Z" fill="#83A1FE"/>
</svg>
